<svg width="325" height="325" viewBox="0 0 325 325" fill="none" xmlns="http://www.w3.org/2000/svg">
<rect width="325" height="325" fill="#A9C8D3"/>
<g opacity="0.5">
<path d="M129.934 193.867L138.257 178.278L167.981 119.094L232.451 92.6719L247.776 137.457L189.119 193.867H129.934Z" fill="#235E74" stroke="#FDFBF6" stroke-width="1.97312"/>
<path d="M77.2227 158.195L96.775 131.773L138.258 178.143L129.935 193.864H111.836L77.2227 158.195Z" fill="#235E74" stroke="#FDFBF6" stroke-width="1.97312"/>
<path d="M146.449 102.98L111.704 110.643L96.7754 131.516L138.39 178.018L167.851 119.23L146.449 102.98Z" fill="#235E74" stroke="#FDFBF6" stroke-width="1.97312"/>
<path d="M167.851 118.958L146.449 102.708L217.26 64.1328L232.321 92.5361L167.851 118.958Z" fill="#235E74" stroke="#FDFBF6" stroke-width="1.97312"/>
<path d="M216.994 64.1356L146.447 102.975L111.834 110.638L104.568 72.3263L127.82 55.4164L197.838 50L216.994 64.1356Z" fill="#235E74" stroke="#FDFBF6" stroke-width="1.97312"/>
</g>
<path d="M111.132 243.867V226.734H113.125V243.867H111.132ZM130.528 230.789C131.942 230.789 133.008 231.16 133.727 231.902C134.446 232.637 134.805 233.82 134.805 235.453V243.867H132.883V235.547C132.883 234.508 132.657 233.73 132.204 233.215C131.758 232.691 131.094 232.43 130.212 232.43C128.969 232.43 128.067 232.789 127.505 233.508C126.942 234.227 126.661 235.285 126.661 236.684V243.867H124.727V235.547C124.727 234.852 124.626 234.273 124.423 233.812C124.227 233.352 123.93 233.008 123.532 232.781C123.141 232.547 122.645 232.43 122.044 232.43C121.192 232.43 120.508 232.605 119.993 232.957C119.477 233.309 119.102 233.832 118.868 234.527C118.641 235.215 118.528 236.062 118.528 237.07V243.867H116.583V231.023H118.153L118.446 232.84H118.551C118.809 232.395 119.133 232.02 119.524 231.715C119.915 231.41 120.352 231.18 120.837 231.023C121.321 230.867 121.837 230.789 122.383 230.789C123.36 230.789 124.176 230.973 124.833 231.34C125.497 231.699 125.977 232.25 126.274 232.992H126.38C126.801 232.25 127.38 231.699 128.114 231.34C128.848 230.973 129.653 230.789 130.528 230.789ZM142.646 230.812C144.177 230.812 145.314 231.156 146.056 231.844C146.798 232.531 147.17 233.629 147.17 235.137V243.867H145.752L145.377 241.969H145.283C144.923 242.438 144.548 242.832 144.158 243.152C143.767 243.465 143.314 243.703 142.798 243.867C142.291 244.023 141.666 244.102 140.923 244.102C140.142 244.102 139.447 243.965 138.838 243.691C138.236 243.418 137.759 243.004 137.408 242.449C137.064 241.895 136.892 241.191 136.892 240.34C136.892 239.059 137.4 238.074 138.416 237.387C139.431 236.699 140.978 236.324 143.056 236.262L145.271 236.168V235.383C145.271 234.273 145.033 233.496 144.556 233.051C144.08 232.605 143.408 232.383 142.541 232.383C141.869 232.383 141.228 232.48 140.619 232.676C140.009 232.871 139.431 233.102 138.884 233.367L138.287 231.891C138.865 231.594 139.529 231.34 140.279 231.129C141.029 230.918 141.818 230.812 142.646 230.812ZM145.248 237.539L143.291 237.621C141.689 237.684 140.56 237.945 139.904 238.406C139.248 238.867 138.92 239.52 138.92 240.363C138.92 241.098 139.142 241.641 139.588 241.992C140.033 242.344 140.623 242.52 141.357 242.52C142.498 242.52 143.431 242.203 144.158 241.57C144.884 240.938 145.248 239.988 145.248 238.723V237.539ZM153.803 249.633C152.116 249.633 150.815 249.316 149.901 248.684C148.987 248.059 148.53 247.18 148.53 246.047C148.53 245.242 148.784 244.555 149.292 243.984C149.807 243.414 150.518 243.035 151.424 242.848C151.088 242.691 150.799 242.457 150.557 242.145C150.323 241.832 150.206 241.473 150.206 241.066C150.206 240.598 150.335 240.188 150.592 239.836C150.858 239.477 151.26 239.133 151.799 238.805C151.128 238.531 150.581 238.07 150.159 237.422C149.745 236.766 149.538 236.004 149.538 235.137C149.538 234.215 149.729 233.43 150.112 232.781C150.495 232.125 151.049 231.625 151.776 231.281C152.503 230.938 153.381 230.766 154.413 230.766C154.639 230.766 154.866 230.777 155.092 230.801C155.327 230.816 155.549 230.844 155.76 230.883C155.971 230.914 156.155 230.953 156.311 231H160.717V232.254L158.35 232.547C158.585 232.852 158.78 233.219 158.936 233.648C159.092 234.078 159.17 234.555 159.17 235.078C159.17 236.359 158.737 237.379 157.87 238.137C157.003 238.887 155.811 239.262 154.295 239.262C153.936 239.262 153.569 239.23 153.194 239.168C152.811 239.379 152.518 239.613 152.315 239.871C152.12 240.129 152.022 240.426 152.022 240.762C152.022 241.012 152.096 241.211 152.245 241.359C152.401 241.508 152.624 241.617 152.913 241.688C153.202 241.75 153.549 241.781 153.956 241.781H156.217C157.616 241.781 158.686 242.074 159.428 242.66C160.178 243.246 160.553 244.102 160.553 245.227C160.553 246.648 159.975 247.738 158.819 248.496C157.663 249.254 155.991 249.633 153.803 249.633ZM153.862 248.109C154.924 248.109 155.803 248 156.499 247.781C157.202 247.57 157.725 247.262 158.069 246.855C158.42 246.457 158.596 245.98 158.596 245.426C158.596 244.91 158.479 244.52 158.245 244.254C158.01 243.996 157.667 243.824 157.213 243.738C156.76 243.645 156.206 243.598 155.549 243.598H153.323C152.745 243.598 152.241 243.688 151.811 243.867C151.381 244.047 151.049 244.312 150.815 244.664C150.588 245.016 150.475 245.453 150.475 245.977C150.475 246.672 150.768 247.199 151.354 247.559C151.94 247.926 152.776 248.109 153.862 248.109ZM154.366 237.844C155.295 237.844 155.995 237.609 156.463 237.141C156.932 236.672 157.167 235.988 157.167 235.09C157.167 234.129 156.928 233.41 156.452 232.934C155.975 232.449 155.272 232.207 154.342 232.207C153.452 232.207 152.764 232.457 152.28 232.957C151.803 233.449 151.565 234.172 151.565 235.125C151.565 236 151.807 236.672 152.292 237.141C152.776 237.609 153.467 237.844 154.366 237.844ZM167.234 230.789C168.328 230.789 169.265 231.031 170.046 231.516C170.828 232 171.425 232.68 171.839 233.555C172.253 234.422 172.46 235.438 172.46 236.602V237.809H163.589C163.613 239.316 163.988 240.465 164.714 241.254C165.441 242.043 166.464 242.438 167.785 242.438C168.597 242.438 169.316 242.363 169.941 242.215C170.566 242.066 171.214 241.848 171.886 241.559V243.27C171.238 243.559 170.593 243.77 169.953 243.902C169.32 244.035 168.57 244.102 167.703 244.102C166.468 244.102 165.39 243.852 164.468 243.352C163.554 242.844 162.843 242.102 162.335 241.125C161.828 240.148 161.574 238.953 161.574 237.539C161.574 236.156 161.804 234.961 162.265 233.953C162.734 232.938 163.39 232.156 164.234 231.609C165.085 231.062 166.085 230.789 167.234 230.789ZM167.21 232.383C166.171 232.383 165.343 232.723 164.726 233.402C164.109 234.082 163.742 235.031 163.625 236.25H170.421C170.414 235.484 170.292 234.812 170.058 234.234C169.832 233.648 169.484 233.195 169.015 232.875C168.546 232.547 167.945 232.383 167.21 232.383ZM193.767 243.867H191.47L182.13 229.477H182.037C182.06 229.859 182.087 230.297 182.119 230.789C182.15 231.273 182.173 231.793 182.189 232.348C182.212 232.895 182.224 233.453 182.224 234.023V243.867H180.372V226.734H182.658L191.962 241.078H192.044C192.029 240.805 192.009 240.418 191.986 239.918C191.962 239.41 191.939 238.867 191.915 238.289C191.9 237.703 191.892 237.16 191.892 236.66V226.734H193.767V243.867ZM208.264 237.422C208.264 238.477 208.127 239.418 207.854 240.246C207.58 241.074 207.186 241.773 206.67 242.344C206.155 242.914 205.53 243.352 204.795 243.656C204.069 243.953 203.245 244.102 202.323 244.102C201.463 244.102 200.674 243.953 199.955 243.656C199.245 243.352 198.627 242.914 198.104 242.344C197.588 241.773 197.186 241.074 196.897 240.246C196.616 239.418 196.475 238.477 196.475 237.422C196.475 236.016 196.713 234.82 197.19 233.836C197.666 232.844 198.346 232.09 199.229 231.574C200.12 231.051 201.178 230.789 202.405 230.789C203.577 230.789 204.6 231.051 205.475 231.574C206.358 232.098 207.041 232.855 207.526 233.848C208.018 234.832 208.264 236.023 208.264 237.422ZM198.491 237.422C198.491 238.453 198.627 239.348 198.901 240.105C199.174 240.863 199.596 241.449 200.166 241.863C200.737 242.277 201.471 242.484 202.37 242.484C203.26 242.484 203.991 242.277 204.561 241.863C205.139 241.449 205.565 240.863 205.838 240.105C206.112 239.348 206.248 238.453 206.248 237.422C206.248 236.398 206.112 235.516 205.838 234.773C205.565 234.023 205.143 233.445 204.573 233.039C204.002 232.633 203.264 232.43 202.358 232.43C201.022 232.43 200.041 232.871 199.416 233.754C198.799 234.637 198.491 235.859 198.491 237.422ZM214.816 242.508C215.136 242.508 215.464 242.48 215.8 242.426C216.136 242.371 216.41 242.305 216.62 242.227V243.738C216.394 243.84 216.077 243.926 215.671 243.996C215.273 244.066 214.882 244.102 214.499 244.102C213.82 244.102 213.202 243.984 212.648 243.75C212.093 243.508 211.648 243.102 211.312 242.531C210.984 241.961 210.82 241.172 210.82 240.164V232.547H208.992V231.598L210.831 230.836L211.605 228.047H212.777V231.023H216.538V232.547H212.777V240.105C212.777 240.91 212.96 241.512 213.327 241.91C213.702 242.309 214.199 242.508 214.816 242.508ZM129.309 276.867L127.199 271.43H120.332L118.235 276.867H116.219L122.922 259.664H124.715L131.371 276.867H129.309ZM126.602 269.66L124.598 264.258C124.551 264.117 124.473 263.887 124.363 263.566C124.262 263.246 124.156 262.914 124.047 262.57C123.938 262.227 123.848 261.949 123.778 261.738C123.699 262.059 123.613 262.379 123.52 262.699C123.434 263.012 123.348 263.305 123.262 263.578C123.176 263.844 123.102 264.07 123.039 264.258L121 269.66H126.602ZM135.321 276.867L130.446 264.023H132.532L135.357 271.793C135.552 272.324 135.751 272.91 135.954 273.551C136.157 274.191 136.298 274.707 136.376 275.098H136.458C136.552 274.707 136.708 274.191 136.927 273.551C137.146 272.902 137.345 272.316 137.525 271.793L140.349 264.023H142.435L137.548 276.867H135.321ZM148.342 263.812C149.873 263.812 151.01 264.156 151.752 264.844C152.494 265.531 152.865 266.629 152.865 268.137V276.867H151.447L151.072 274.969H150.979C150.619 275.438 150.244 275.832 149.854 276.152C149.463 276.465 149.01 276.703 148.494 276.867C147.986 277.023 147.361 277.102 146.619 277.102C145.838 277.102 145.143 276.965 144.533 276.691C143.932 276.418 143.455 276.004 143.104 275.449C142.76 274.895 142.588 274.191 142.588 273.34C142.588 272.059 143.096 271.074 144.111 270.387C145.127 269.699 146.674 269.324 148.752 269.262L150.967 269.168V268.383C150.967 267.273 150.729 266.496 150.252 266.051C149.775 265.605 149.104 265.383 148.236 265.383C147.565 265.383 146.924 265.48 146.315 265.676C145.705 265.871 145.127 266.102 144.58 266.367L143.982 264.891C144.561 264.594 145.225 264.34 145.975 264.129C146.725 263.918 147.514 263.812 148.342 263.812ZM150.943 270.539L148.986 270.621C147.385 270.684 146.256 270.945 145.6 271.406C144.943 271.867 144.615 272.52 144.615 273.363C144.615 274.098 144.838 274.641 145.283 274.992C145.729 275.344 146.318 275.52 147.053 275.52C148.193 275.52 149.127 275.203 149.854 274.57C150.58 273.938 150.943 272.988 150.943 271.723V270.539ZM157.858 264.023V276.867H155.913V264.023H157.858ZM156.909 259.219C157.23 259.219 157.503 259.324 157.73 259.535C157.964 259.738 158.081 260.059 158.081 260.496C158.081 260.926 157.964 261.246 157.73 261.457C157.503 261.668 157.23 261.773 156.909 261.773C156.573 261.773 156.292 261.668 156.065 261.457C155.847 261.246 155.737 260.926 155.737 260.496C155.737 260.059 155.847 259.738 156.065 259.535C156.292 259.324 156.573 259.219 156.909 259.219ZM162.98 276.867H161.023V258.633H162.98V276.867ZM170.938 263.812C172.47 263.812 173.606 264.156 174.349 264.844C175.091 265.531 175.462 266.629 175.462 268.137V276.867H174.044L173.669 274.969H173.575C173.216 275.438 172.841 275.832 172.45 276.152C172.06 276.465 171.606 276.703 171.091 276.867C170.583 277.023 169.958 277.102 169.216 277.102C168.435 277.102 167.739 276.965 167.13 276.691C166.528 276.418 166.052 276.004 165.7 275.449C165.356 274.895 165.185 274.191 165.185 273.34C165.185 272.059 165.692 271.074 166.708 270.387C167.724 269.699 169.27 269.324 171.349 269.262L173.563 269.168V268.383C173.563 267.273 173.325 266.496 172.849 266.051C172.372 265.605 171.7 265.383 170.833 265.383C170.161 265.383 169.52 265.48 168.911 265.676C168.302 265.871 167.724 266.102 167.177 266.367L166.579 264.891C167.157 264.594 167.821 264.34 168.571 264.129C169.321 263.918 170.11 263.812 170.938 263.812ZM173.54 270.539L171.583 270.621C169.981 270.684 168.853 270.945 168.196 271.406C167.54 271.867 167.212 272.52 167.212 273.363C167.212 274.098 167.435 274.641 167.88 274.992C168.325 275.344 168.915 275.52 169.649 275.52C170.79 275.52 171.724 275.203 172.45 274.57C173.177 273.938 173.54 272.988 173.54 271.723V270.539ZM180.455 258.633V263.191C180.455 263.715 180.439 264.223 180.408 264.715C180.385 265.207 180.365 265.59 180.35 265.863H180.455C180.807 265.285 181.314 264.797 181.978 264.398C182.643 264 183.49 263.801 184.521 263.801C186.131 263.801 187.412 264.359 188.365 265.477C189.326 266.586 189.807 268.238 189.807 270.434C189.807 271.879 189.588 273.098 189.15 274.09C188.713 275.082 188.096 275.832 187.299 276.34C186.502 276.848 185.56 277.102 184.475 277.102C183.459 277.102 182.623 276.914 181.967 276.539C181.318 276.156 180.818 275.691 180.467 275.145H180.314L179.916 276.867H178.51V258.633H180.455ZM184.205 265.43C183.275 265.43 182.537 265.613 181.99 265.98C181.443 266.34 181.049 266.887 180.807 267.621C180.572 268.348 180.455 269.27 180.455 270.387V270.492C180.455 272.109 180.725 273.348 181.264 274.207C181.803 275.059 182.783 275.484 184.205 275.484C185.4 275.484 186.295 275.047 186.889 274.172C187.49 273.297 187.791 272.047 187.791 270.422C187.791 268.766 187.494 267.52 186.9 266.684C186.314 265.848 185.416 265.43 184.205 265.43ZM194.202 276.867H192.245V258.633H194.202V276.867ZM202.301 263.789C203.394 263.789 204.332 264.031 205.113 264.516C205.894 265 206.492 265.68 206.906 266.555C207.32 267.422 207.527 268.438 207.527 269.602V270.809H198.656C198.68 272.316 199.055 273.465 199.781 274.254C200.508 275.043 201.531 275.438 202.851 275.438C203.664 275.438 204.383 275.363 205.008 275.215C205.633 275.066 206.281 274.848 206.953 274.559V276.27C206.305 276.559 205.66 276.77 205.019 276.902C204.387 277.035 203.637 277.102 202.769 277.102C201.535 277.102 200.457 276.852 199.535 276.352C198.621 275.844 197.91 275.102 197.402 274.125C196.894 273.148 196.64 271.953 196.64 270.539C196.64 269.156 196.871 267.961 197.332 266.953C197.801 265.938 198.457 265.156 199.301 264.609C200.152 264.062 201.152 263.789 202.301 263.789ZM202.277 265.383C201.238 265.383 200.41 265.723 199.793 266.402C199.176 267.082 198.808 268.031 198.691 269.25H205.488C205.48 268.484 205.359 267.812 205.125 267.234C204.898 266.648 204.551 266.195 204.082 265.875C203.613 265.547 203.012 265.383 202.277 265.383Z" fill="#5C5D6D"/>
</svg>
