<svg width="1440" height="1024" viewBox="0 0 1440 1024" fill="none" xmlns="http://www.w3.org/2000/svg">
<g opacity="0.5">
<g clip-path="url(#clip0_1975_15629)">
<path d="M824.604 429.893L898.931 411.279L961.191 462.757L963.053 501.076L929.484 535.223H856.119H820.046L802.267 505.376L792.703 471.807L813.05 446.517L824.604 429.893Z" fill="#235E74" stroke="#FDFBF6" stroke-width="1.08"/>
<path d="M898.934 411.279L890.59 443.18L915.109 476.043L962.735 501.076" stroke="#FDFBF6" stroke-width="1.08"/>
<path d="M885.773 535.479L915.106 477.005" stroke="#FDFBF6" stroke-width="1.08"/>
<path d="M802.652 505.761L818.956 481.884L854.45 535.223" stroke="#FDFBF6" stroke-width="1.08"/>
<path d="M890.588 443.179L819.469 481.883L813.051 446.517" stroke="#FDFBF6" stroke-width="1.08"/>
</g>
<g clip-path="url(#clip1_1975_15629)">
<path d="M610.363 512.822L620.843 534.176C620.934 534.36 621.122 534.478 621.328 534.478H782.498C782.641 534.478 782.778 534.421 782.88 534.319L797.205 519.994C797.347 519.852 797.399 519.643 797.339 519.451L786.149 483.615C786.115 483.506 786.047 483.411 785.955 483.343L747.36 454.664C747.267 454.595 747.154 454.558 747.038 454.558H669.138C668.996 454.558 668.86 454.613 668.759 454.713L610.468 512.199C610.303 512.363 610.26 512.613 610.363 512.822Z" fill="#235E74" stroke="#FDFBF6" stroke-width="1.35"/>
<path d="M757.736 489.899L785.611 483.558C785.885 483.496 786.161 483.655 786.246 483.923L797.34 519.319C797.399 519.509 797.349 519.717 797.21 519.859L783.015 534.316C782.914 534.419 782.775 534.478 782.63 534.478H704.983C704.476 534.478 704.248 533.843 704.639 533.521L757.513 490.009C757.578 489.956 757.654 489.918 757.736 489.899Z" fill="#235E74" stroke="#FDFBF6" stroke-width="1.35"/>
<path d="M671.909 455.463L757.451 489.863C757.555 489.905 757.669 489.914 757.777 489.888L784.966 483.445C785.413 483.339 785.532 482.759 785.164 482.486L747.494 454.529C747.401 454.46 747.288 454.422 747.172 454.422H672.11C671.516 454.422 671.358 455.242 671.909 455.463Z" fill="#235E74" stroke="#FDFBF6" stroke-width="1.35"/>
<path d="M638.859 484.088L669.476 454.665C669.629 454.517 669.855 454.474 670.052 454.553L756.902 489.586C757.283 489.74 757.36 490.245 757.042 490.505L703.762 534.085C703.666 534.164 703.545 534.207 703.42 534.207H670.027C669.841 534.207 669.668 534.112 669.569 533.954L638.776 484.764C638.64 484.548 638.675 484.265 638.859 484.088Z" fill="#235E74" stroke="#FDFBF6" stroke-width="1.35"/>
</g>
<g clip-path="url(#clip2_1975_15629)">
<path d="M525.848 534.547L533.119 520.927L559.09 469.216L615.418 446.131L628.807 485.26L577.558 534.547H525.848Z" fill="#235E74" stroke="#FDFBF6" stroke-width="1.15425"/>
<path d="M479.793 503.382L496.876 480.297L533.119 520.811L525.848 534.547H510.034L479.793 503.382Z" fill="#235E74" stroke="#FDFBF6" stroke-width="1.15425"/>
<path d="M540.275 455.134L509.918 461.829L496.875 480.066L533.234 520.696L558.974 469.332L540.275 455.134Z" fill="#235E74" stroke="#FDFBF6" stroke-width="1.15425"/>
<path d="M558.972 469.101L540.273 454.904L602.141 421.2L615.3 446.016L558.972 469.101Z" fill="#235E74" stroke="#FDFBF6" stroke-width="1.15425"/>
<path d="M601.911 421.2L540.273 455.135L510.032 461.829L503.684 428.356L523.998 413.582L585.174 408.849L601.911 421.2Z" fill="#235E74" stroke="#FDFBF6" stroke-width="1.15425"/>
</g>
</g>
<path d="M629.814 605.5V577.5H632.774V602.94H648.454V605.5H629.814ZM661.016 605.7C658.989 605.7 657.163 605.247 655.536 604.34C653.936 603.407 652.669 602.14 651.736 600.54C650.803 598.913 650.336 597.06 650.336 594.98C650.336 592.873 650.803 591.02 651.736 589.42C652.669 587.82 653.936 586.567 655.536 585.66C657.136 584.753 658.963 584.3 661.016 584.3C663.096 584.3 664.936 584.753 666.536 585.66C668.163 586.567 669.429 587.82 670.336 589.42C671.269 591.02 671.736 592.873 671.736 594.98C671.736 597.06 671.269 598.913 670.336 600.54C669.429 602.14 668.163 603.407 666.536 604.34C664.909 605.247 663.069 605.7 661.016 605.7ZM661.016 603.18C662.536 603.18 663.883 602.847 665.056 602.18C666.229 601.487 667.149 600.527 667.816 599.3C668.509 598.047 668.856 596.607 668.856 594.98C668.856 593.327 668.509 591.887 667.816 590.66C667.149 589.433 666.229 588.487 665.056 587.82C663.883 587.127 662.549 586.78 661.056 586.78C659.563 586.78 658.229 587.127 657.056 587.82C655.883 588.487 654.949 589.433 654.256 590.66C653.563 591.887 653.216 593.327 653.216 594.98C653.216 596.607 653.563 598.047 654.256 599.3C654.949 600.527 655.883 601.487 657.056 602.18C658.229 602.847 659.549 603.18 661.016 603.18ZM690.577 605.5V600.86L690.457 600.1V592.34C690.457 590.553 689.95 589.18 688.937 588.22C687.95 587.26 686.47 586.78 684.497 586.78C683.137 586.78 681.844 587.007 680.617 587.46C679.39 587.913 678.35 588.513 677.497 589.26L676.217 587.14C677.284 586.233 678.564 585.54 680.057 585.06C681.55 584.553 683.124 584.3 684.777 584.3C687.497 584.3 689.59 584.98 691.057 586.34C692.55 587.673 693.297 589.713 693.297 592.46V605.5H690.577ZM683.337 605.7C681.764 605.7 680.39 605.447 679.217 604.94C678.07 604.407 677.19 603.687 676.577 602.78C675.964 601.847 675.657 600.78 675.657 599.58C675.657 598.487 675.91 597.5 676.417 596.62C676.95 595.713 677.804 594.993 678.977 594.46C680.177 593.9 681.777 593.62 683.777 593.62H691.017V595.74H683.857C681.83 595.74 680.417 596.1 679.617 596.82C678.844 597.54 678.457 598.433 678.457 599.5C678.457 600.7 678.924 601.66 679.857 602.38C680.79 603.1 682.097 603.46 683.777 603.46C685.377 603.46 686.75 603.1 687.897 602.38C689.07 601.633 689.924 600.567 690.457 599.18L691.097 601.14C690.564 602.527 689.63 603.633 688.297 604.46C686.99 605.287 685.337 605.7 683.337 605.7ZM709.371 605.7C707.371 605.7 705.571 605.247 703.971 604.34C702.397 603.433 701.157 602.18 700.251 600.58C699.344 598.953 698.891 597.087 698.891 594.98C698.891 592.847 699.344 590.98 700.251 589.38C701.157 587.78 702.397 586.54 703.971 585.66C705.571 584.753 707.371 584.3 709.371 584.3C711.211 584.3 712.851 584.713 714.291 585.54C715.757 586.367 716.917 587.58 717.771 589.18C718.651 590.753 719.091 592.687 719.091 594.98C719.091 597.247 718.664 599.18 717.811 600.78C716.957 602.38 715.797 603.607 714.331 604.46C712.891 605.287 711.237 605.7 709.371 605.7ZM709.571 603.18C711.064 603.18 712.397 602.847 713.571 602.18C714.771 601.487 715.704 600.527 716.371 599.3C717.064 598.047 717.411 596.607 717.411 594.98C717.411 593.327 717.064 591.887 716.371 590.66C715.704 589.433 714.771 588.487 713.571 587.82C712.397 587.127 711.064 586.78 709.571 586.78C708.104 586.78 706.784 587.127 705.611 587.82C704.437 588.487 703.504 589.433 702.811 590.66C702.117 591.887 701.771 593.327 701.771 594.98C701.771 596.607 702.117 598.047 702.811 599.3C703.504 600.527 704.437 601.487 705.611 602.18C706.784 602.847 708.104 603.18 709.571 603.18ZM717.491 605.5V599.18L717.771 594.94L717.371 590.7V575.82H720.211V605.5H717.491ZM728.12 605.5V584.5H730.96V605.5H728.12ZM729.56 579.86C728.973 579.86 728.48 579.66 728.08 579.26C727.68 578.86 727.48 578.38 727.48 577.82C727.48 577.26 727.68 576.793 728.08 576.42C728.48 576.02 728.973 575.82 729.56 575.82C730.147 575.82 730.64 576.007 731.04 576.38C731.44 576.753 731.64 577.22 731.64 577.78C731.64 578.367 731.44 578.86 731.04 579.26C730.667 579.66 730.173 579.86 729.56 579.86ZM749.582 584.3C751.289 584.3 752.782 584.633 754.062 585.3C755.369 585.94 756.382 586.927 757.102 588.26C757.849 589.593 758.222 591.273 758.222 593.3V605.5H755.382V593.58C755.382 591.367 754.822 589.7 753.702 588.58C752.609 587.433 751.062 586.86 749.062 586.86C747.569 586.86 746.262 587.167 745.142 587.78C744.049 588.367 743.196 589.233 742.582 590.38C741.996 591.5 741.702 592.86 741.702 594.46V605.5H738.862V584.5H741.582V590.26L741.142 589.18C741.809 587.66 742.876 586.473 744.342 585.62C745.809 584.74 747.556 584.3 749.582 584.3ZM774.854 613.46C772.934 613.46 771.094 613.18 769.334 612.62C767.574 612.06 766.147 611.26 765.054 610.22L766.494 608.06C767.48 608.94 768.694 609.633 770.134 610.14C771.6 610.673 773.147 610.94 774.774 610.94C777.44 610.94 779.4 610.313 780.654 609.06C781.907 607.833 782.534 605.913 782.534 603.3V598.06L782.934 594.46L782.654 590.86V584.5H785.374V602.94C785.374 606.567 784.48 609.22 782.694 610.9C780.934 612.607 778.32 613.46 774.854 613.46ZM774.334 604.7C772.334 604.7 770.534 604.273 768.934 603.42C767.334 602.54 766.067 601.327 765.134 599.78C764.227 598.233 763.774 596.46 763.774 594.46C763.774 592.46 764.227 590.7 765.134 589.18C766.067 587.633 767.334 586.433 768.934 585.58C770.534 584.727 772.334 584.3 774.334 584.3C776.2 584.3 777.88 584.687 779.374 585.46C780.867 586.233 782.054 587.38 782.934 588.9C783.814 590.42 784.254 592.273 784.254 594.46C784.254 596.647 783.814 598.5 782.934 600.02C782.054 601.54 780.867 602.7 779.374 603.5C777.88 604.3 776.2 604.7 774.334 604.7ZM774.614 602.18C776.16 602.18 777.534 601.86 778.734 601.22C779.934 600.553 780.88 599.647 781.574 598.5C782.267 597.327 782.614 595.98 782.614 594.46C782.614 592.94 782.267 591.607 781.574 590.46C780.88 589.313 779.934 588.42 778.734 587.78C777.534 587.113 776.16 586.78 774.614 586.78C773.094 586.78 771.72 587.113 770.494 587.78C769.294 588.42 768.347 589.313 767.654 590.46C766.987 591.607 766.654 592.94 766.654 594.46C766.654 595.98 766.987 597.327 767.654 598.5C768.347 599.647 769.294 600.553 770.494 601.22C771.72 601.86 773.094 602.18 774.614 602.18ZM793.556 605.7C792.97 605.7 792.463 605.487 792.036 605.06C791.636 604.633 791.436 604.113 791.436 603.5C791.436 602.86 791.636 602.34 792.036 601.94C792.463 601.54 792.97 601.34 793.556 601.34C794.143 601.34 794.636 601.54 795.036 601.94C795.463 602.34 795.676 602.86 795.676 603.5C795.676 604.113 795.463 604.633 795.036 605.06C794.636 605.487 794.143 605.7 793.556 605.7ZM802.033 605.7C801.446 605.7 800.94 605.487 800.513 605.06C800.113 604.633 799.913 604.113 799.913 603.5C799.913 602.86 800.113 602.34 800.513 601.94C800.94 601.54 801.446 601.34 802.033 601.34C802.62 601.34 803.113 601.54 803.513 601.94C803.94 602.34 804.153 602.86 804.153 603.5C804.153 604.113 803.94 604.633 803.513 605.06C803.113 605.487 802.62 605.7 802.033 605.7ZM810.51 605.7C809.923 605.7 809.416 605.487 808.99 605.06C808.59 604.633 808.39 604.113 808.39 603.5C808.39 602.86 808.59 602.34 808.99 601.94C809.416 601.54 809.923 601.34 810.51 601.34C811.096 601.34 811.59 601.54 811.99 601.94C812.416 602.34 812.63 602.86 812.63 603.5C812.63 604.113 812.416 604.633 811.99 605.06C811.59 605.487 811.096 605.7 810.51 605.7Z" fill="#5C5D6D"/>
<defs>
<clipPath id="clip0_1975_15629">
<rect width="171.72" height="124.2" fill="white" transform="translate(791.887 411.277)"/>
</clipPath>
<clipPath id="clip1_1975_15629">
<rect width="188.19" height="81.54" fill="white" transform="translate(609.387 452.938)"/>
</clipPath>
<clipPath id="clip2_1975_15629">
<rect width="150.66" height="127.98" fill="white" transform="translate(478.887 407.5)"/>
</clipPath>
</defs>
</svg>
