<svg xmlns="http://www.w3.org/2000/svg" width="206" height="60" viewBox="0 0 206 60" fill="none">
  <g clip-path="url(#clip0_2917_2999)">
    <mask id="mask0_2917_2999" style="mask-type:luminance" maskUnits="userSpaceOnUse" x="0" y="0" width="206" height="60">
      <path d="M206 0.5H0V59.5H206V0.5Z" fill="white"/>
    </mask>
    <g mask="url(#mask0_2917_2999)">
      <path d="M151.032 17.866L180.306 10.5L204.826 30.8706L205.559 46.0343L192.338 59.547H163.444H149.237L142.235 47.736L138.469 34.452L146.482 24.4445L151.032 17.866Z" fill="#235E74" stroke="#FDFBF6" stroke-width="0.5"/>
      <path d="M21.6211 58.9958L24.9707 52.6919L36.9335 28.7587L62.8794 18.0742L69.0469 36.1844L45.4403 58.9958H21.6211Z" fill="#235E74" stroke="#FDFBF6" stroke-width="0.625"/>
      <path d="M0.40625 44.5751L8.27511 33.8906L24.9699 52.6419L21.6203 58.9991H14.3363L0.40625 44.5751Z" fill="#235E74" stroke="#FDFBF6" stroke-width="0.625"/>
      <path d="M28.2646 22.2422L14.2815 25.3407L8.27344 33.7814L25.0214 52.5861L36.8779 28.8131L28.2646 22.2422Z" fill="#235E74" stroke="#FDFBF6" stroke-width="0.625"/>
      <path d="M36.8749 28.7054L28.2617 22.1345L56.7598 6.53516L62.8209 18.021L36.8749 28.7054Z" fill="#235E74" stroke="#FDFBF6" stroke-width="0.625"/>
      <path d="M56.6562 6.53651L28.2645 22.2427L14.3344 25.3412L11.4102 9.84869L20.7678 3.01063L48.9468 0.820312L56.6562 6.53651Z" fill="#235E74" stroke="#FDFBF6" stroke-width="0.625"/>
      <path d="M63.5725 50.5173L67.7 58.9674C67.7358 59.0406 67.8098 59.087 67.8909 59.087H131.365C131.422 59.087 131.476 59.0644 131.516 59.0244L137.158 53.3553C137.214 53.2992 137.234 53.2164 137.211 53.1405L132.803 38.9597C132.79 38.9165 132.764 38.8788 132.728 38.8519L117.527 27.5031C117.491 27.4757 117.446 27.4609 117.4 27.4609H86.7202C86.6644 27.4609 86.6107 27.4831 86.5709 27.5225L63.6141 50.271C63.5489 50.3356 63.5322 50.4348 63.5725 50.5173Z" fill="#235E74" stroke="#FDFBF6" stroke-width="0.625"/>
      <path d="M121.614 41.4483L132.592 38.9389C132.701 38.9143 132.809 38.9772 132.842 39.0834L137.212 53.0902C137.235 53.1654 137.216 53.2476 137.161 53.3038L131.571 59.0249C131.53 59.0658 131.476 59.0889 131.419 59.0889H100.838C100.639 59.0889 100.549 58.8376 100.703 58.7102L121.526 41.4917C121.552 41.4705 121.582 41.4557 121.614 41.4483Z" fill="#235E74" stroke="#FDFBF6" stroke-width="0.625"/>
      <path d="M87.8133 27.8182L121.503 41.431C121.543 41.4475 121.589 41.4509 121.632 41.4408L132.34 38.8912C132.515 38.8493 132.562 38.6199 132.417 38.5117L117.581 27.4483C117.545 27.421 117.5 27.4062 117.455 27.4062H87.8926C87.6587 27.4062 87.5962 27.7305 87.8133 27.8182Z" fill="#235E74" stroke="#FDFBF6" stroke-width="0.625"/>
      <path d="M74.7959 39.1485L86.8538 27.5049C86.9142 27.4466 87.003 27.4294 87.0808 27.4608L121.286 41.3241C121.436 41.3849 121.465 41.5848 121.34 41.6877L100.357 58.9334C100.319 58.9646 100.271 58.9817 100.222 58.9817H87.0709C86.9975 58.9817 86.9294 58.9438 86.8905 58.8814L74.7629 39.416C74.7095 39.3303 74.7232 39.2186 74.7959 39.1485Z" fill="#235E74" stroke="#FDFBF6" stroke-width="0.625"/>
      <mask id="mask1_2917_2999" style="mask-type:alpha" maskUnits="userSpaceOnUse" x="50" y="26" width="91" height="33">
        <path fill-rule="evenodd" clip-rule="evenodd" d="M90.3703 26.5828L50.8133 58.9568L50.7461 58.874L90.3031 26.5L90.3703 26.5828ZM95.4744 26.5828L55.9174 58.9568L55.8502 58.874L95.4072 26.5L95.4744 26.5828ZM61.0215 58.9568L100.579 26.5828L100.511 26.5L60.9543 58.874L61.0215 58.9568ZM105.683 26.5828L66.1257 58.9568L66.0585 58.874L105.616 26.5L105.683 26.5828ZM71.2298 58.9568L110.787 26.5828L110.72 26.5L71.1626 58.874L71.2298 58.9568ZM115.891 26.5828L76.3339 58.9568L76.2667 58.874L115.824 26.5L115.891 26.5828ZM81.4381 58.9568L120.995 26.5828L120.928 26.5L81.3708 58.874L81.4381 58.9568ZM126.099 26.5828L86.5422 58.9568L86.475 58.874L126.032 26.5L126.099 26.5828ZM91.6463 58.9568L131.203 26.5828L131.136 26.5L91.5791 58.874L91.6463 58.9568ZM136.307 26.5828L96.7504 58.9568L96.6832 58.874L136.24 26.5L136.307 26.5828ZM52.0893 58.9568L91.6463 26.5828L91.5791 26.5L52.0221 58.874L52.0893 58.9568ZM96.7504 26.5828L57.1935 58.9568L57.1262 58.874L96.6832 26.5L96.7504 26.5828ZM62.2976 58.9568L101.855 26.5828L101.787 26.5L62.2304 58.874L62.2976 58.9568ZM106.959 26.5828L67.4017 58.9568L67.3345 58.874L106.892 26.5L106.959 26.5828ZM72.5058 58.9568L112.063 26.5828L111.996 26.5L72.4386 58.874L72.5058 58.9568ZM117.167 26.5828L77.61 58.9568L77.5427 58.874L117.1 26.5L117.167 26.5828ZM82.7141 58.9568L122.271 26.5828L122.204 26.5L82.6469 58.874L82.7141 58.9568ZM127.375 26.5828L87.8182 58.9568L87.751 58.874L127.308 26.5L127.375 26.5828ZM92.9223 58.9568L132.479 26.5828L132.412 26.5L92.8551 58.874L92.9223 58.9568ZM137.583 26.5828L98.0265 58.9568L97.9593 58.874L137.516 26.5L137.583 26.5828ZM53.3654 58.9568L92.9223 26.5828L92.8551 26.5L53.2982 58.874L53.3654 58.9568ZM98.0265 26.5828L58.4695 58.9568L58.4023 58.874L97.9593 26.5L98.0265 26.5828ZM63.5736 58.9568L103.131 26.5828L103.063 26.5L63.5064 58.874L63.5736 58.9568ZM108.235 26.5828L68.6777 58.9568L68.6105 58.874L108.168 26.5L108.235 26.5828ZM73.7819 58.9568L113.339 26.5828L113.272 26.5L73.7147 58.874L73.7819 58.9568ZM118.443 26.5828L78.886 58.9568L78.8188 58.874L118.376 26.5L118.443 26.5828ZM83.9901 58.9568L123.547 26.5828L123.48 26.5L83.9229 58.874L83.9901 58.9568ZM128.651 26.5828L89.0942 58.9568L89.027 58.874L128.584 26.5L128.651 26.5828ZM94.1984 58.9568L133.755 26.5828L133.688 26.5L94.1312 58.874L94.1984 58.9568ZM138.859 26.5828L99.3025 58.9568L99.2353 58.874L138.792 26.5L138.859 26.5828ZM81.7569 32.6731L88.0308 27.5445L87.9637 27.4616L81.6899 32.5902L81.7569 32.6731ZM94.1984 26.5828L54.6414 58.9568L54.5742 58.874L94.1312 26.5L94.1984 26.5828ZM59.7455 58.9568L99.3025 26.5828L99.2353 26.5L59.6783 58.874L59.7455 58.9568ZM104.407 26.5828L64.8496 58.9568L64.7824 58.874L104.34 26.5L104.407 26.5828ZM69.9538 58.9568L109.511 26.5828L109.444 26.5L69.8866 58.874L69.9538 58.9568ZM114.615 26.5828L75.0579 58.9568L74.9907 58.874L114.548 26.5L114.615 26.5828ZM80.162 58.9568L119.719 26.5828L119.652 26.5L80.0948 58.874L80.162 58.9568ZM124.823 26.5828L85.2661 58.9568L85.1989 58.874L124.756 26.5L124.823 26.5828ZM90.3703 58.9568L129.927 26.5828L129.86 26.5L90.3031 58.874L90.3703 58.9568ZM135.031 26.5828L95.4744 58.9568L95.4072 58.874L134.964 26.5L135.031 26.5828ZM100.579 58.9568L140.135 26.5828L140.068 26.5L100.511 58.874L100.579 58.9568Z" fill="black"/>
      </mask>
      <g mask="url(#mask1_2917_2999)">
        <path d="M75.0273 39.1488L87.3091 27.2891L121.975 41.3391L100.654 58.8617H87.3091L75.0273 39.1488Z" fill="#FDFBF6"/>
      </g>
      <path d="M180.306 10.5L177.02 23.1237L186.676 36.1284L205.434 46.0343" stroke="#FDFBF6" stroke-width="0.5"/>
      <path d="M177.021 23.125L149.012 38.4411L146.484 24.4458" stroke="#FDFBF6" stroke-width="0.5"/>
      <mask id="mask2_2917_2999" style="mask-type:alpha" maskUnits="userSpaceOnUse" x="-3" y="15" width="108" height="47">
        <path fill-rule="evenodd" clip-rule="evenodd" d="M49.266 60.7658L91.8306 19.7447L91.7569 19.6676L49.1925 60.6886L49.266 60.7658ZM100.74 20.3823L58.1758 61.4033L58.1021 61.3262L100.667 20.3051L100.74 20.3823ZM2.1723 57.396L44.7369 16.3749L44.6633 16.2978L2.09869 57.3188L2.1723 57.396ZM-2.91858 57.0317L39.646 16.0107L39.5724 15.9336L-2.99219 56.9547L-2.91858 57.0317ZM49.8282 16.7392L7.2636 57.7603L7.18999 57.6832L49.7546 16.6621L49.8282 16.7392ZM12.3549 58.1247L54.9195 17.1035L54.8459 17.0265L12.2813 58.0475L12.3549 58.1247ZM60.0104 17.4678L17.4458 58.4889L17.3723 58.4117L59.9367 17.3907L60.0104 17.4678ZM22.5375 58.8532L65.1021 17.8322L65.0285 17.7551L22.4639 58.7762L22.5375 58.8532ZM70.1934 18.1966L27.6288 59.2176L27.5552 59.1404L70.1198 18.1194L70.1934 18.1966ZM32.7197 59.5818L75.2843 18.5608L75.2106 18.4837L32.6462 59.5047L32.7197 59.5818ZM80.3755 18.9251L37.811 59.9461L37.7374 59.8691L80.302 18.848L80.3755 18.9251ZM42.9023 60.3105L85.4668 19.2895L85.3932 19.2123L42.8287 60.2333L42.9023 60.3105ZM90.5582 19.6537L47.9936 60.6747L47.92 60.5977L90.4845 19.5766L90.5582 19.6537ZM53.0849 61.0392L95.6495 20.0181L95.5759 19.9409L53.0113 60.962L53.0849 61.0392ZM-1.64576 57.1228L40.9189 16.1018L40.8453 16.0246L-1.71936 57.0457L-1.64576 57.1228ZM46.0097 16.466L3.44513 57.487L3.37152 57.41L45.9361 16.3889L46.0097 16.466ZM8.53644 57.8515L51.1011 16.8303L51.0274 16.7532L8.46286 57.7743L8.53644 57.8515ZM56.1923 17.1947L13.6278 58.2157L13.5542 58.1387L56.1188 17.1175L56.1923 17.1947ZM18.7187 58.5799L61.2831 17.5589L61.2095 17.4818L18.645 58.5029L18.7187 58.5799ZM66.3745 17.9233L23.81 58.9444L23.7364 58.8672L66.301 17.8461L66.3745 17.9233ZM28.9016 59.3087L71.4662 18.2876L71.3926 18.2105L28.8281 59.2316L28.9016 59.3087ZM76.557 18.6518L33.9926 59.6729L33.9189 59.5958L76.4835 18.5747L76.557 18.6518ZM39.0838 60.0373L81.6484 19.0162L81.5748 18.9391L39.0103 59.9601L39.0838 60.0373ZM86.7397 19.3805L44.1751 60.4015L44.1015 60.3244L86.6661 19.3034L86.7397 19.3805ZM96.9223 20.1091L54.3577 61.1302L54.2841 61.0531L96.8487 20.0319L96.9223 20.1091ZM59.449 61.4944L102.014 20.4734L101.94 20.3963L59.3754 61.4174L59.449 61.4944ZM42.1913 16.1928L-0.373351 57.2139L-0.446956 57.1368L42.1177 16.1157L42.1913 16.1928ZM4.71836 57.5781L47.283 16.5571L47.2094 16.48L4.64476 57.5011L4.71836 57.5781ZM52.3738 16.9214L9.80928 57.9425L9.73559 57.8653L52.3002 16.8443L52.3738 16.9214ZM14.9006 58.3068L57.4652 17.2857L57.3916 17.2087L14.827 58.2297L14.9006 58.3068ZM62.5564 17.6501L19.9919 58.6712L19.9183 58.594L62.4828 17.5729L62.5564 17.6501ZM25.0828 59.0354L67.6474 18.0144L67.5737 17.9373L25.0092 58.9583L25.0828 59.0354ZM72.7386 18.3786L30.1741 59.3996L30.1005 59.3226L72.6651 18.3015L72.7386 18.3786ZM35.2657 59.764L77.8303 18.743L77.7567 18.6658L35.1922 59.6869L35.2657 59.764ZM82.9212 19.1072L40.3567 60.1283L40.2831 60.0512L82.8475 19.0302L82.9212 19.1072ZM45.4479 60.4927L88.0125 19.4715L87.9389 19.3944L45.3744 60.4155L45.4479 60.4927ZM93.1038 19.8359L50.5392 60.857L50.4656 60.7799L93.0302 19.7588L93.1038 19.8359ZM55.6301 61.2212L98.1947 20.2001L98.1211 20.1231L55.5565 61.1441L55.6301 61.2212ZM103.286 20.5645L60.7218 61.5856L60.6482 61.5084L103.213 20.4873L103.286 20.5645ZM0.89948 57.3049L43.4641 16.2838L43.3904 16.2068L0.825874 57.2278L0.89948 57.3049ZM48.5554 16.6482L5.99077 57.6692L5.91716 57.5921L48.4818 16.571L48.5554 16.6482ZM11.0817 58.0335L53.6462 17.0125L53.5726 16.9354L11.0081 57.9565L11.0817 58.0335ZM58.738 17.3767L16.1734 58.3979L16.0998 58.3207L58.6643 17.2996L58.738 17.3767ZM21.2647 58.7621L63.8293 17.7411L63.7557 17.6639L21.1911 58.6851L21.2647 58.7621ZM68.9201 18.1053L26.3556 59.1264L26.2819 59.0493L68.8465 18.0283L68.9201 18.1053ZM31.4469 59.4908L74.0115 18.4697L73.9379 18.3925L31.3733 59.4136L31.4469 59.4908ZM79.1027 18.834L36.5382 59.8551L36.4646 59.778L79.0292 18.757L79.1027 18.834ZM41.6295 60.2194L84.194 19.1983L84.1204 19.1212L41.5558 60.1423L41.6295 60.2194ZM89.2854 19.5626L46.7208 60.5837L46.6472 60.5065L89.2118 19.4855L89.2854 19.5626ZM51.812 60.948L94.3766 19.927L94.303 19.8499L51.7385 60.871L51.812 60.948ZM99.4676 20.2913L56.903 61.3123L56.8294 61.2352L99.3939 20.2141L99.4676 20.2913ZM61.9941 61.6766L104.559 20.6555L104.485 20.5785L61.9205 61.5995L61.9941 61.6766Z" fill="black"/>
      </mask>
      <g mask="url(#mask2_2917_2999)">
        <path d="M21.832 58.9997L25.1816 52.6958L37.1444 28.7626L63.0903 18.0781L69.2578 36.1883L45.6512 58.9997H21.832Z" fill="#FDFBF6"/>
      </g>
      <path d="M175.125 59.6509L186.677 36.5117" stroke="#FDFBF6" stroke-width="0.5"/>
      <path d="M142.391 47.8901L148.811 38.4414L162.79 59.5486" stroke="#FDFBF6" stroke-width="0.5"/>
      <mask id="mask3_2917_2999" style="mask-type:alpha" maskUnits="userSpaceOnUse" x="125" y="22" width="90" height="38">
        <path fill-rule="evenodd" clip-rule="evenodd" d="M165.016 22.2301L125.459 59.6369L125.387 59.5591L164.944 22.1523L165.016 22.2301ZM170.12 22.2301L130.563 59.6369L130.491 59.5591L170.048 22.1523L170.12 22.2301ZM135.667 59.6369L175.224 22.2301L175.152 22.1523L135.595 59.5591L135.667 59.6369ZM180.328 22.2301L140.771 59.6369L140.699 59.5591L180.256 22.1523L180.328 22.2301ZM145.876 59.6369L185.433 22.2301L185.36 22.1523L145.803 59.5591L145.876 59.6369ZM190.537 22.2301L150.98 59.6369L150.907 59.5591L190.464 22.1523L190.537 22.2301ZM156.084 59.6369L195.641 22.2301L195.568 22.1523L156.012 59.5591L156.084 59.6369ZM200.745 22.2301L161.188 59.6369L161.116 59.5591L200.673 22.1523L200.745 22.2301ZM166.292 59.6369L205.849 22.2301L205.777 22.1523L166.22 59.5591L166.292 59.6369ZM210.953 22.2301L171.396 59.6369L171.324 59.5591L210.881 22.1523L210.953 22.2301ZM126.735 59.6369L166.292 22.2301L166.22 22.1523L126.663 59.5591L126.735 59.6369ZM171.396 22.2301L131.839 59.6369L131.767 59.5591L171.324 22.1523L171.396 22.2301ZM136.943 59.6369L176.5 22.2301L176.428 22.1523L136.871 59.5591L136.943 59.6369ZM181.604 22.2301L142.047 59.6369L141.975 59.5591L181.532 22.1523L181.604 22.2301ZM147.152 59.6369L186.709 22.2301L186.636 22.1523L147.079 59.5591L147.152 59.6369ZM191.813 22.2301L152.256 59.6369L152.183 59.5591L191.74 22.1523L191.813 22.2301ZM157.36 59.6369L196.917 22.2301L196.845 22.1523L157.288 59.5591L157.36 59.6369ZM202.021 22.2301L162.464 59.6369L162.392 59.5591L201.949 22.1523L202.021 22.2301ZM167.568 59.6369L207.125 22.2301L207.053 22.1523L167.496 59.5591L167.568 59.6369ZM212.229 22.2301L172.672 59.6369L172.6 59.5591L212.157 22.1523L212.229 22.2301ZM128.011 59.6369L167.568 22.2301L167.496 22.1523L127.939 59.5591L128.011 59.6369ZM172.672 22.2301L133.115 59.6369L133.043 59.5591L172.6 22.1523L172.672 22.2301ZM138.219 59.6369L177.776 22.2301L177.704 22.1523L138.147 59.5591L138.219 59.6369ZM182.88 22.2301L143.324 59.6369L143.251 59.5591L182.808 22.1523L182.88 22.2301ZM148.428 59.6369L187.985 22.2301L187.912 22.1523L148.355 59.5591L148.428 59.6369ZM193.089 22.2301L153.532 59.6369L153.459 59.5591L193.016 22.1523L193.089 22.2301ZM158.636 59.6369L198.193 22.2301L198.121 22.1523L158.564 59.5591L158.636 59.6369ZM203.297 22.2301L163.74 59.6369L163.668 59.5591L203.225 22.1523L203.297 22.2301ZM168.844 59.6369L208.401 22.2301L208.329 22.1523L168.772 59.5591L168.844 59.6369ZM213.505 22.2301L173.948 59.6369L173.876 59.5591L213.433 22.1523L213.505 22.2301ZM156.403 29.2671L162.677 23.3413L162.604 23.2634L156.331 29.1892L156.403 29.2671ZM168.844 22.2301L129.287 59.6369L129.215 59.5591L168.772 22.1523L168.844 22.2301ZM134.391 59.6369L173.948 22.2301L173.876 22.1523L134.319 59.5591L134.391 59.6369ZM179.052 22.2301L139.495 59.6369L139.423 59.5591L178.98 22.1523L179.052 22.2301ZM144.6 59.6369L184.157 22.2301L184.084 22.1523L144.527 59.5591L144.6 59.6369ZM189.261 22.2301L149.704 59.6369L149.631 59.5591L189.188 22.1523L189.261 22.2301ZM154.808 59.6369L194.365 22.2301L194.292 22.1523L154.735 59.5591L154.808 59.6369ZM199.469 22.2301L159.912 59.6369L159.84 59.5591L199.397 22.1523L199.469 22.2301ZM165.016 59.6369L204.573 22.2301L204.501 22.1523L164.944 59.5591L165.016 59.6369ZM209.677 22.2301L170.12 59.6369L170.048 59.5591L209.605 22.1523L209.677 22.2301ZM175.224 59.6369L214.781 22.2301L214.709 22.1523L175.152 59.5591L175.224 59.6369Z" fill="black"/>
      </mask>
      <g mask="url(#mask3_2917_2999)">
        <path d="M148.941 38.2227L177.014 23.0508L186.478 36.2995L175.26 59.1643H162.552L148.941 38.2227Z" fill="#D9D9D9" stroke="black" stroke-width="0.125"/>
      </g>
    </g>
  </g>
  <defs>
    <clipPath id="clip0_2917_2999">
      <rect width="206" height="59" fill="white" transform="translate(0 0.5)"/>
    </clipPath>
  </defs>
</svg>