<svg width="167" height="77" viewBox="0 0 167 77" fill="none" xmlns="http://www.w3.org/2000/svg">
<path d="M28.4258 75.9323L32.7566 67.8206L48.2237 37.0239L81.7701 23.2754L89.7443 46.5792L59.2225 75.9323H28.4258Z" fill="#235E74" stroke="#FDFBF6" stroke-width="0.657717"/>
<path d="M1 57.3716L11.1739 43.623L32.7591 67.7517L28.4283 75.9321H19.0106L1 57.3716Z" fill="#235E74" stroke="#FDFBF6" stroke-width="0.657717"/>
<path d="M37.023 28.6367L18.9437 32.6238L11.1758 43.4851L32.8297 67.6826L48.1594 37.0921L37.023 28.6367Z" fill="#235E74" stroke="#FDFBF6" stroke-width="0.657717"/>
<path d="M48.1558 36.9559L37.0195 28.5006L73.8656 8.42773L81.7023 23.2074L48.1558 36.9559Z" fill="#235E74" stroke="#FDFBF6" stroke-width="0.657717"/>
<path d="M73.7266 8.42578L37.018 28.6361L19.0074 32.6232L15.2266 12.6878L27.3253 3.88876L63.7589 1.07031L73.7266 8.42578Z" fill="#235E74" stroke="#FDFBF6" stroke-width="0.657717"/>
<path d="M71.2007 64.9647L76.5444 75.8525C76.5886 75.9426 76.6802 75.9996 76.7805 75.9996H158.861C158.931 75.9996 158.998 75.9719 159.047 75.9226L166.351 68.6192C166.42 68.55 166.445 68.4482 166.416 68.3548L160.713 50.0928C160.697 50.0421 160.667 49.9973 160.625 49.9644L128.909 25.0153C128.836 24.9585 128.74 24.9435 128.654 24.9756L101.073 35.2843C101.038 35.2973 101.007 35.3174 100.98 35.3434L71.2521 64.6615C71.1715 64.741 71.1508 64.8631 71.2007 64.9647Z" fill="#235E74" stroke="#FDFBF6" stroke-width="0.657717"/>
<path d="M146.248 53.3015L160.455 50.0695C160.589 50.0391 160.723 50.1165 160.764 50.2473L166.419 68.2882C166.448 68.3808 166.424 68.4819 166.356 68.5512L159.119 75.9216C159.07 75.972 159.002 76.0004 158.931 76.0004H119.355C119.108 76.0004 118.997 75.691 119.188 75.5341L146.139 53.3548C146.17 53.3288 146.208 53.3105 146.248 53.3015Z" fill="#235E74" stroke="#FDFBF6" stroke-width="0.657717"/>
<path d="M101.857 35.4874L146.111 53.2838C146.161 53.304 146.217 53.3082 146.27 53.2957L160.161 50.0039C160.375 49.953 160.436 49.6766 160.262 49.5407L128.844 24.9467C128.772 24.8901 128.675 24.8753 128.589 24.9078L101.862 34.9972C101.638 35.0819 101.634 35.398 101.857 35.4874Z" fill="#235E74" stroke="#FDFBF6" stroke-width="0.657717"/>
<path d="M85.7088 50.3471L101.311 35.3524C101.386 35.2806 101.496 35.2593 101.592 35.2981L145.842 53.1474C146.028 53.2223 146.065 53.4685 145.91 53.5951L118.761 75.8018C118.714 75.8403 118.655 75.8613 118.595 75.8613H101.58C101.489 75.8613 101.405 75.8146 101.357 75.7378L85.6681 50.6764C85.602 50.5709 85.619 50.4334 85.7088 50.3471Z" stroke="#FDFBF6" stroke-width="0.657717"/>
</svg>
