<svg width="880" height="405" viewBox="0 0 880 405" fill="none" xmlns="http://www.w3.org/2000/svg">
<g opacity="0.5">
<g clip-path="url(#clip0_1975_15245)">
<path d="M544.604 120.393L618.932 101.779L681.192 153.257L683.053 191.576L649.484 225.723H576.119H540.047L522.267 195.876L512.704 162.307L533.051 137.017L544.604 120.393Z" fill="#235E74" stroke="#FDFBF6" stroke-width="1.08"/>
<path d="M618.931 101.779L610.587 133.68L635.106 166.543L682.732 191.576" stroke="#FDFBF6" stroke-width="1.08"/>
<path d="M605.773 225.979L635.106 167.505" stroke="#FDFBF6" stroke-width="1.08"/>
<path d="M522.652 196.261L538.956 172.384L574.45 225.723" stroke="#FDFBF6" stroke-width="1.08"/>
<path d="M610.588 133.679L539.469 172.383L533.051 137.017" stroke="#FDFBF6" stroke-width="1.08"/>
</g>
<g clip-path="url(#clip1_1975_15245)">
<path d="M330.365 203.322L340.845 224.676C340.936 224.86 341.124 224.978 341.33 224.978H502.5C502.643 224.978 502.78 224.921 502.882 224.819L517.207 210.494C517.349 210.352 517.401 210.143 517.341 209.951L506.151 174.115C506.117 174.006 506.049 173.911 505.957 173.843L467.362 145.164C467.269 145.095 467.156 145.058 467.04 145.058H389.14C388.998 145.058 388.862 145.113 388.761 145.213L330.47 202.699C330.305 202.863 330.262 203.113 330.365 203.322Z" fill="#235E74" stroke="#FDFBF6" stroke-width="1.35"/>
<path d="M477.738 180.399L505.613 174.058C505.887 173.996 506.163 174.155 506.248 174.423L517.342 209.819C517.401 210.009 517.351 210.217 517.212 210.359L503.017 224.816C502.916 224.919 502.777 224.978 502.632 224.978H424.985C424.478 224.978 424.25 224.343 424.641 224.021L477.515 180.509C477.58 180.456 477.656 180.418 477.738 180.399Z" fill="#235E74" stroke="#FDFBF6" stroke-width="1.35"/>
<path d="M391.912 145.963L477.454 180.363C477.558 180.405 477.672 180.414 477.78 180.388L504.969 173.945C505.416 173.839 505.535 173.259 505.166 172.986L467.497 145.029C467.403 144.96 467.291 144.922 467.175 144.922H392.113C391.519 144.922 391.361 145.742 391.912 145.963Z" fill="#235E74" stroke="#FDFBF6" stroke-width="1.35"/>
<path d="M358.86 174.588L389.476 145.165C389.63 145.017 389.855 144.974 390.053 145.053L476.903 180.086C477.283 180.24 477.36 180.745 477.042 181.005L423.763 224.585C423.666 224.664 423.545 224.707 423.421 224.707H390.027C389.841 224.707 389.669 224.612 389.57 224.454L358.776 175.264C358.641 175.048 358.675 174.765 358.86 174.588Z" fill="#235E74" stroke="#FDFBF6" stroke-width="1.35"/>
</g>
<g clip-path="url(#clip2_1975_15245)">
<path d="M245.848 225.047L253.12 211.427L279.091 159.716L335.418 136.631L348.808 175.76L297.559 225.047H245.848Z" fill="#235E74" stroke="#FDFBF6" stroke-width="1.15425"/>
<path d="M199.794 193.882L216.877 170.797L253.121 211.311L245.849 225.047H230.036L199.794 193.882Z" fill="#235E74" stroke="#FDFBF6" stroke-width="1.15425"/>
<path d="M260.276 145.634L229.919 152.329L216.876 170.566L253.235 211.196L278.975 159.832L260.276 145.634Z" fill="#235E74" stroke="#FDFBF6" stroke-width="1.15425"/>
<path d="M278.975 159.601L260.276 145.404L322.144 111.7L335.303 136.516L278.975 159.601Z" fill="#235E74" stroke="#FDFBF6" stroke-width="1.15425"/>
<path d="M321.913 111.7L260.276 145.635L230.034 152.329L223.686 118.856L244.001 104.082L305.176 99.3491L321.913 111.7Z" fill="#235E74" stroke="#FDFBF6" stroke-width="1.15425"/>
</g>
</g>
<path d="M198.818 296V268H201.258L220.578 292.32H219.298V268H222.218V296H219.778L200.498 271.68H201.778V296H198.818ZM239.317 296.2C237.29 296.2 235.464 295.747 233.837 294.84C232.237 293.907 230.97 292.64 230.037 291.04C229.104 289.413 228.637 287.56 228.637 285.48C228.637 283.373 229.104 281.52 230.037 279.92C230.97 278.32 232.237 277.067 233.837 276.16C235.437 275.253 237.264 274.8 239.317 274.8C241.397 274.8 243.237 275.253 244.837 276.16C246.464 277.067 247.73 278.32 248.637 279.92C249.57 281.52 250.037 283.373 250.037 285.48C250.037 287.56 249.57 289.413 248.637 291.04C247.73 292.64 246.464 293.907 244.837 294.84C243.21 295.747 241.37 296.2 239.317 296.2ZM239.317 293.68C240.837 293.68 242.184 293.347 243.357 292.68C244.53 291.987 245.45 291.027 246.117 289.8C246.81 288.547 247.157 287.107 247.157 285.48C247.157 283.827 246.81 282.387 246.117 281.16C245.45 279.933 244.53 278.987 243.357 278.32C242.184 277.627 240.85 277.28 239.357 277.28C237.864 277.28 236.53 277.627 235.357 278.32C234.184 278.987 233.25 279.933 232.557 281.16C231.864 282.387 231.517 283.827 231.517 285.48C231.517 287.107 231.864 288.547 232.557 289.8C233.25 291.027 234.184 291.987 235.357 292.68C236.53 293.347 237.85 293.68 239.317 293.68ZM266.304 296V275H269.144V296H266.304ZM267.744 270.36C267.157 270.36 266.664 270.16 266.264 269.76C265.864 269.36 265.664 268.88 265.664 268.32C265.664 267.76 265.864 267.293 266.264 266.92C266.664 266.52 267.157 266.32 267.744 266.32C268.33 266.32 268.824 266.507 269.224 266.88C269.624 267.253 269.824 267.72 269.824 268.28C269.824 268.867 269.624 269.36 269.224 269.76C268.85 270.16 268.357 270.36 267.744 270.36ZM283.686 296.2C281.713 296.2 280.193 295.667 279.126 294.6C278.059 293.533 277.526 292.027 277.526 290.08V270.36H280.366V289.92C280.366 291.147 280.673 292.093 281.286 292.76C281.926 293.427 282.833 293.76 284.006 293.76C285.259 293.76 286.299 293.4 287.126 292.68L288.126 294.72C287.566 295.227 286.886 295.6 286.086 295.84C285.313 296.08 284.513 296.2 283.686 296.2ZM273.766 277.36V275H286.766V277.36H273.766ZM301.474 296.2C299.287 296.2 297.367 295.747 295.714 294.84C294.06 293.907 292.767 292.64 291.834 291.04C290.9 289.413 290.434 287.56 290.434 285.48C290.434 283.4 290.874 281.56 291.754 279.96C292.66 278.36 293.887 277.107 295.434 276.2C297.007 275.267 298.767 274.8 300.714 274.8C302.687 274.8 304.434 275.253 305.954 276.16C307.5 277.04 308.714 278.293 309.594 279.92C310.474 281.52 310.914 283.373 310.914 285.48C310.914 285.613 310.9 285.76 310.874 285.92C310.874 286.053 310.874 286.2 310.874 286.36H292.594V284.24H309.354L308.234 285.08C308.234 283.56 307.9 282.213 307.234 281.04C306.594 279.84 305.714 278.907 304.594 278.24C303.474 277.573 302.18 277.24 300.714 277.24C299.274 277.24 297.98 277.573 296.834 278.24C295.687 278.907 294.794 279.84 294.154 281.04C293.514 282.24 293.194 283.613 293.194 285.16V285.6C293.194 287.2 293.54 288.613 294.234 289.84C294.954 291.04 295.94 291.987 297.194 292.68C298.474 293.347 299.927 293.68 301.554 293.68C302.834 293.68 304.02 293.453 305.114 293C306.234 292.547 307.194 291.853 307.994 290.92L309.594 292.76C308.66 293.88 307.487 294.733 306.074 295.32C304.687 295.907 303.154 296.2 301.474 296.2ZM342.934 274.8C344.641 274.8 346.121 275.133 347.374 275.8C348.654 276.44 349.641 277.427 350.334 278.76C351.054 280.093 351.414 281.773 351.414 283.8V296H348.574V284.08C348.574 281.867 348.041 280.2 346.974 279.08C345.934 277.933 344.454 277.36 342.534 277.36C341.094 277.36 339.841 277.667 338.774 278.28C337.734 278.867 336.921 279.733 336.334 280.88C335.774 282 335.494 283.36 335.494 284.96V296H332.654V284.08C332.654 281.867 332.121 280.2 331.054 279.08C329.988 277.933 328.494 277.36 326.574 277.36C325.161 277.36 323.921 277.667 322.854 278.28C321.788 278.867 320.961 279.733 320.374 280.88C319.814 282 319.534 283.36 319.534 284.96V296H316.694V275H319.414V280.68L318.974 279.68C319.614 278.16 320.641 276.973 322.054 276.12C323.494 275.24 325.188 274.8 327.134 274.8C329.188 274.8 330.934 275.32 332.374 276.36C333.814 277.373 334.748 278.907 335.174 280.96L334.054 280.52C334.668 278.813 335.748 277.44 337.294 276.4C338.868 275.333 340.748 274.8 342.934 274.8ZM364.756 296.2C363.023 296.2 361.383 295.96 359.836 295.48C358.29 294.973 357.076 294.347 356.196 293.6L357.476 291.36C358.33 292 359.423 292.56 360.756 293.04C362.09 293.493 363.49 293.72 364.956 293.72C366.956 293.72 368.396 293.413 369.276 292.8C370.156 292.16 370.596 291.32 370.596 290.28C370.596 289.507 370.343 288.907 369.836 288.48C369.356 288.027 368.716 287.693 367.916 287.48C367.116 287.24 366.223 287.04 365.236 286.88C364.25 286.72 363.263 286.533 362.276 286.32C361.316 286.107 360.436 285.8 359.636 285.4C358.836 284.973 358.183 284.4 357.676 283.68C357.196 282.96 356.956 282 356.956 280.8C356.956 279.653 357.276 278.627 357.916 277.72C358.556 276.813 359.49 276.107 360.716 275.6C361.97 275.067 363.49 274.8 365.276 274.8C366.636 274.8 367.996 274.987 369.356 275.36C370.716 275.707 371.836 276.173 372.716 276.76L371.476 279.04C370.543 278.4 369.543 277.947 368.476 277.68C367.41 277.387 366.343 277.24 365.276 277.24C363.383 277.24 361.983 277.573 361.076 278.24C360.196 278.88 359.756 279.707 359.756 280.72C359.756 281.52 359.996 282.147 360.476 282.6C360.983 283.053 361.636 283.413 362.436 283.68C363.263 283.92 364.156 284.12 365.116 284.28C366.103 284.44 367.076 284.64 368.036 284.88C369.023 285.093 369.916 285.4 370.716 285.8C371.543 286.173 372.196 286.72 372.676 287.44C373.183 288.133 373.436 289.053 373.436 290.2C373.436 291.427 373.09 292.493 372.396 293.4C371.73 294.28 370.743 294.973 369.436 295.48C368.156 295.96 366.596 296.2 364.756 296.2ZM402.276 296V291.36L402.156 290.6V282.84C402.156 281.053 401.65 279.68 400.636 278.72C399.65 277.76 398.17 277.28 396.196 277.28C394.836 277.28 393.543 277.507 392.316 277.96C391.09 278.413 390.05 279.013 389.196 279.76L387.916 277.64C388.983 276.733 390.263 276.04 391.756 275.56C393.25 275.053 394.823 274.8 396.476 274.8C399.196 274.8 401.29 275.48 402.756 276.84C404.25 278.173 404.996 280.213 404.996 282.96V296H402.276ZM395.036 296.2C393.463 296.2 392.09 295.947 390.916 295.44C389.77 294.907 388.89 294.187 388.276 293.28C387.663 292.347 387.356 291.28 387.356 290.08C387.356 288.987 387.61 288 388.116 287.12C388.65 286.213 389.503 285.493 390.676 284.96C391.876 284.4 393.476 284.12 395.476 284.12H402.716V286.24H395.556C393.53 286.24 392.116 286.6 391.316 287.32C390.543 288.04 390.156 288.933 390.156 290C390.156 291.2 390.623 292.16 391.556 292.88C392.49 293.6 393.796 293.96 395.476 293.96C397.076 293.96 398.45 293.6 399.596 292.88C400.77 292.133 401.623 291.067 402.156 289.68L402.796 291.64C402.263 293.027 401.33 294.133 399.996 294.96C398.69 295.787 397.036 296.2 395.036 296.2ZM412.71 296V275H415.43V280.72L415.15 279.72C415.737 278.12 416.723 276.907 418.11 276.08C419.497 275.227 421.217 274.8 423.27 274.8V277.56C423.163 277.56 423.057 277.56 422.95 277.56C422.843 277.533 422.737 277.52 422.63 277.52C420.417 277.52 418.683 278.2 417.43 279.56C416.177 280.893 415.55 282.8 415.55 285.28V296H412.71ZM437.177 296.2C434.99 296.2 433.07 295.747 431.417 294.84C429.764 293.907 428.47 292.64 427.537 291.04C426.604 289.413 426.137 287.56 426.137 285.48C426.137 283.4 426.577 281.56 427.457 279.96C428.364 278.36 429.59 277.107 431.137 276.2C432.71 275.267 434.47 274.8 436.417 274.8C438.39 274.8 440.137 275.253 441.657 276.16C443.204 277.04 444.417 278.293 445.297 279.92C446.177 281.52 446.617 283.373 446.617 285.48C446.617 285.613 446.604 285.76 446.577 285.92C446.577 286.053 446.577 286.2 446.577 286.36H428.297V284.24H445.057L443.937 285.08C443.937 283.56 443.604 282.213 442.937 281.04C442.297 279.84 441.417 278.907 440.297 278.24C439.177 277.573 437.884 277.24 436.417 277.24C434.977 277.24 433.684 277.573 432.537 278.24C431.39 278.907 430.497 279.84 429.857 281.04C429.217 282.24 428.897 283.613 428.897 285.16V285.6C428.897 287.2 429.244 288.613 429.937 289.84C430.657 291.04 431.644 291.987 432.897 292.68C434.177 293.347 435.63 293.68 437.257 293.68C438.537 293.68 439.724 293.453 440.817 293C441.937 292.547 442.897 291.853 443.697 290.92L445.297 292.76C444.364 293.88 443.19 294.733 441.777 295.32C440.39 295.907 438.857 296.2 437.177 296.2ZM462.866 296V275H465.706V296H462.866ZM464.306 270.36C463.72 270.36 463.226 270.16 462.826 269.76C462.426 269.36 462.226 268.88 462.226 268.32C462.226 267.76 462.426 267.293 462.826 266.92C463.226 266.52 463.72 266.32 464.306 266.32C464.893 266.32 465.386 266.507 465.786 266.88C466.186 267.253 466.386 267.72 466.386 268.28C466.386 268.867 466.186 269.36 465.786 269.76C465.413 270.16 464.92 270.36 464.306 270.36ZM484.328 274.8C486.035 274.8 487.528 275.133 488.808 275.8C490.115 276.44 491.128 277.427 491.848 278.76C492.595 280.093 492.968 281.773 492.968 283.8V296H490.128V284.08C490.128 281.867 489.568 280.2 488.448 279.08C487.355 277.933 485.808 277.36 483.808 277.36C482.315 277.36 481.008 277.667 479.888 278.28C478.795 278.867 477.942 279.733 477.328 280.88C476.742 282 476.448 283.36 476.448 284.96V296H473.608V275H476.328V280.76L475.888 279.68C476.555 278.16 477.622 276.973 479.088 276.12C480.555 275.24 482.302 274.8 484.328 274.8ZM511.268 303.96C510.282 303.96 509.335 303.8 508.428 303.48C507.548 303.16 506.788 302.68 506.148 302.04L507.468 299.92C508.002 300.427 508.575 300.813 509.188 301.08C509.828 301.373 510.535 301.52 511.308 301.52C512.242 301.52 513.042 301.253 513.708 300.72C514.402 300.213 515.055 299.307 515.668 298L517.028 294.92L517.348 294.48L525.988 275H528.788L518.268 298.52C517.682 299.88 517.028 300.96 516.308 301.76C515.615 302.56 514.855 303.12 514.028 303.44C513.202 303.787 512.282 303.96 511.268 303.96ZM516.868 296.6L507.188 275H510.148L518.708 294.28L516.868 296.6ZM540.762 296.2C538.736 296.2 536.909 295.747 535.282 294.84C533.682 293.907 532.416 292.64 531.482 291.04C530.549 289.413 530.082 287.56 530.082 285.48C530.082 283.373 530.549 281.52 531.482 279.92C532.416 278.32 533.682 277.067 535.282 276.16C536.882 275.253 538.709 274.8 540.762 274.8C542.842 274.8 544.682 275.253 546.282 276.16C547.909 277.067 549.176 278.32 550.082 279.92C551.016 281.52 551.482 283.373 551.482 285.48C551.482 287.56 551.016 289.413 550.082 291.04C549.176 292.64 547.909 293.907 546.282 294.84C544.656 295.747 542.816 296.2 540.762 296.2ZM540.762 293.68C542.282 293.68 543.629 293.347 544.802 292.68C545.976 291.987 546.896 291.027 547.562 289.8C548.256 288.547 548.602 287.107 548.602 285.48C548.602 283.827 548.256 282.387 547.562 281.16C546.896 279.933 545.976 278.987 544.802 278.32C543.629 277.627 542.296 277.28 540.802 277.28C539.309 277.28 537.976 277.627 536.802 278.32C535.629 278.987 534.696 279.933 534.002 281.16C533.309 282.387 532.962 283.827 532.962 285.48C532.962 287.107 533.309 288.547 534.002 289.8C534.696 291.027 535.629 291.987 536.802 292.68C537.976 293.347 539.296 293.68 540.762 293.68ZM565.96 296.2C564.174 296.2 562.614 295.867 561.28 295.2C559.947 294.533 558.907 293.533 558.16 292.2C557.44 290.867 557.08 289.2 557.08 287.2V275H559.92V286.88C559.92 289.12 560.467 290.813 561.56 291.96C562.68 293.08 564.24 293.64 566.24 293.64C567.707 293.64 568.974 293.347 570.04 292.76C571.134 292.147 571.96 291.267 572.52 290.12C573.107 288.973 573.4 287.6 573.4 286V275H576.24V296H573.52V290.24L573.96 291.28C573.294 292.827 572.254 294.04 570.84 294.92C569.454 295.773 567.827 296.2 565.96 296.2ZM584.155 296V275H586.875V280.72L586.595 279.72C587.182 278.12 588.169 276.907 589.555 276.08C590.942 275.227 592.662 274.8 594.715 274.8V277.56C594.609 277.56 594.502 277.56 594.395 277.56C594.289 277.533 594.182 277.52 594.075 277.52C591.862 277.52 590.129 278.2 588.875 279.56C587.622 280.893 586.995 282.8 586.995 285.28V296H584.155ZM619.399 296.2C617.319 296.2 615.452 295.747 613.799 294.84C612.172 293.907 610.892 292.64 609.959 291.04C609.025 289.413 608.559 287.56 608.559 285.48C608.559 283.373 609.025 281.52 609.959 279.92C610.892 278.32 612.172 277.067 613.799 276.16C615.452 275.253 617.319 274.8 619.399 274.8C621.185 274.8 622.799 275.147 624.239 275.84C625.679 276.533 626.812 277.573 627.639 278.96L625.519 280.4C624.799 279.333 623.905 278.547 622.839 278.04C621.772 277.533 620.612 277.28 619.359 277.28C617.865 277.28 616.519 277.627 615.319 278.32C614.119 278.987 613.172 279.933 612.479 281.16C611.785 282.387 611.439 283.827 611.439 285.48C611.439 287.133 611.785 288.573 612.479 289.8C613.172 291.027 614.119 291.987 615.319 292.68C616.519 293.347 617.865 293.68 619.359 293.68C620.612 293.68 621.772 293.427 622.839 292.92C623.905 292.413 624.799 291.64 625.519 290.6L627.639 292.04C626.812 293.4 625.679 294.44 624.239 295.16C622.799 295.853 621.185 296.2 619.399 296.2ZM646.378 296V291.36L646.258 290.6V282.84C646.258 281.053 645.751 279.68 644.738 278.72C643.751 277.76 642.271 277.28 640.298 277.28C638.938 277.28 637.644 277.507 636.418 277.96C635.191 278.413 634.151 279.013 633.298 279.76L632.018 277.64C633.084 276.733 634.364 276.04 635.858 275.56C637.351 275.053 638.924 274.8 640.578 274.8C643.298 274.8 645.391 275.48 646.858 276.84C648.351 278.173 649.098 280.213 649.098 282.96V296H646.378ZM639.138 296.2C637.564 296.2 636.191 295.947 635.018 295.44C633.871 294.907 632.991 294.187 632.378 293.28C631.764 292.347 631.458 291.28 631.458 290.08C631.458 288.987 631.711 288 632.218 287.12C632.751 286.213 633.604 285.493 634.778 284.96C635.978 284.4 637.578 284.12 639.578 284.12H646.818V286.24H639.658C637.631 286.24 636.218 286.6 635.418 287.32C634.644 288.04 634.258 288.933 634.258 290C634.258 291.2 634.724 292.16 635.658 292.88C636.591 293.6 637.898 293.96 639.578 293.96C641.178 293.96 642.551 293.6 643.698 292.88C644.871 292.133 645.724 291.067 646.258 289.68L646.898 291.64C646.364 293.027 645.431 294.133 644.098 294.96C642.791 295.787 641.138 296.2 639.138 296.2ZM656.812 296V275H659.532V280.72L659.252 279.72C659.838 278.12 660.825 276.907 662.212 276.08C663.598 275.227 665.318 274.8 667.372 274.8V277.56C667.265 277.56 667.158 277.56 667.052 277.56C666.945 277.533 666.838 277.52 666.732 277.52C664.518 277.52 662.785 278.2 661.532 279.56C660.278 280.893 659.652 282.8 659.652 285.28V296H656.812ZM680.092 296.2C678.119 296.2 676.599 295.667 675.532 294.6C674.466 293.533 673.932 292.027 673.932 290.08V270.36H676.772V289.92C676.772 291.147 677.079 292.093 677.692 292.76C678.332 293.427 679.239 293.76 680.412 293.76C681.666 293.76 682.706 293.4 683.532 292.68L684.532 294.72C683.972 295.227 683.292 295.6 682.492 295.84C681.719 296.08 680.919 296.2 680.092 296.2ZM670.172 277.36V275H683.172V277.36H670.172Z" fill="#5C5D6D"/>
<defs>
<clipPath id="clip0_1975_15245">
<rect width="171.72" height="124.2" fill="white" transform="translate(511.887 101.777)"/>
</clipPath>
<clipPath id="clip1_1975_15245">
<rect width="188.19" height="81.54" fill="white" transform="translate(329.387 143.438)"/>
</clipPath>
<clipPath id="clip2_1975_15245">
<rect width="150.66" height="127.98" fill="white" transform="translate(198.887 98)"/>
</clipPath>
</defs>
</svg>
