<svg width="132" height="132" viewBox="0 0 132 132" fill="none" xmlns="http://www.w3.org/2000/svg">
<g clip-path="url(#clip0_2917_2882)">
<path d="M0 16.502C0 12.1259 1.73839 7.92904 4.83274 4.83469C7.92709 1.74034 12.1239 0.00195313 16.5 0.00195312H115.5C119.876 0.00195313 124.073 1.74034 127.167 4.83469C130.262 7.92904 132 12.1259 132 16.502V90.752C132 95.128 130.262 99.3249 127.167 102.419C124.073 105.514 119.876 107.252 115.5 107.252H82.5V115.502C82.5 117.69 83.3692 119.788 84.9164 121.336C86.4635 122.883 88.562 123.752 90.75 123.752H94.875C95.969 123.752 97.0182 124.187 97.7918 124.96C98.5654 125.734 99 126.783 99 127.877C99 128.971 98.5654 130.02 97.7918 130.794C97.0182 131.567 95.969 132.002 94.875 132.002H37.125C36.031 132.002 34.9818 131.567 34.2082 130.794C33.4346 130.02 33 128.971 33 127.877C33 126.783 33.4346 125.734 34.2082 124.96C34.9818 124.187 36.031 123.752 37.125 123.752H41.25C43.438 123.752 45.5365 122.883 47.0836 121.336C48.6308 119.788 49.5 117.69 49.5 115.502V107.252H16.5C12.1239 107.252 7.92709 105.514 4.83274 102.419C1.73839 99.3249 0 95.128 0 90.752V16.502ZM8.25 86.2039V90.752C8.25 92.94 9.11919 95.0384 10.6664 96.5856C12.2135 98.1328 14.312 99.002 16.5 99.002H115.5C117.688 99.002 119.786 98.1328 121.334 96.5856C122.881 95.0384 123.75 92.94 123.75 90.752V86.2039H8.25ZM123.75 79.3289V16.502C123.75 14.3139 122.881 12.2155 121.334 10.6683C119.786 9.12115 117.688 8.25195 115.5 8.25195H16.5C14.312 8.25195 12.2135 9.12115 10.6664 10.6683C9.11919 12.2155 8.25 14.3139 8.25 16.502V79.3289H123.75ZM76.461 123.752C75.0127 121.244 74.2501 118.398 74.25 115.502V107.252H57.75V115.502C57.75 118.505 56.9498 121.326 55.539 123.752H76.461Z" fill="#235E74"/>
<rect x="24.1453" y="22.034" width="23.6288" height="23.6288" rx="3.3" stroke="#235E74" stroke-width="2.475"/>
<path d="M59.2305 24.3301H104.399" stroke="#235E74" stroke-width="2.475" stroke-linecap="round"/>
<path d="M59.2305 30.9297H104.399" stroke="#235E74" stroke-width="2.475" stroke-linecap="round"/>
<path d="M59.2305 37.5303H104.399" stroke="#235E74" stroke-width="2.475" stroke-linecap="round"/>
<path d="M59.2305 44.1299H104.399" stroke="#235E74" stroke-width="2.475" stroke-linecap="round"/>
<rect x="59.6523" y="55.002" width="46.5385" height="16.9231" rx="8.46154" fill="#235E74"/>
<path d="M80.6952 63.9373H78.3259V66.3065C78.3259 66.4322 78.276 66.5527 78.1871 66.6415C78.0983 66.7304 77.9778 66.7803 77.8521 66.7803C77.7264 66.7803 77.6059 66.7304 77.517 66.6415C77.4282 66.5527 77.3782 66.4322 77.3782 66.3065V63.9373H75.009C74.8833 63.9373 74.7628 63.8873 74.6739 63.7985C74.5851 63.7096 74.5352 63.5891 74.5352 63.4634C74.5352 63.3377 74.5851 63.2172 74.6739 63.1283C74.7628 63.0395 74.8833 62.9896 75.009 62.9896H77.3782V60.6203C77.3782 60.4947 77.4282 60.3741 77.517 60.2853C77.6059 60.1964 77.7264 60.1465 77.8521 60.1465C77.9778 60.1465 78.0983 60.1964 78.1871 60.2853C78.276 60.3741 78.3259 60.4947 78.3259 60.6203V62.9896H80.6952C80.8208 62.9896 80.9414 63.0395 81.0302 63.1283C81.1191 63.2172 81.169 63.3377 81.169 63.4634C81.169 63.5891 81.1191 63.7096 81.0302 63.7985C80.9414 63.8873 80.8208 63.9373 80.6952 63.9373Z" fill="#FDFBF6"/>
<path d="M84.5496 65.9966C84.0851 65.9966 83.7092 66.3767 83.7092 66.8413C83.7092 67.3059 84.0851 67.686 84.5496 67.686C85.0142 67.686 85.3943 67.3059 85.3943 66.8413C85.3943 66.3767 85.0142 65.9966 84.5496 65.9966ZM82.0156 59.2393V60.0839H82.8603L84.3807 63.2895L83.8106 64.3242C83.743 64.4424 83.705 64.5818 83.705 64.7296C83.705 65.1942 84.0851 65.5743 84.5496 65.5743H89.6177V64.7296H84.727C84.6679 64.7296 84.6214 64.6832 84.6214 64.624L84.6341 64.5734L85.0142 63.885H88.1606C88.4774 63.885 88.7561 63.7118 88.8997 63.45L90.4117 60.709C90.4455 60.6499 90.4624 60.5781 90.4624 60.5063C90.4624 60.274 90.2723 60.0839 90.04 60.0839H83.7937L83.3967 59.2393H82.0156ZM88.773 65.9966C88.3084 65.9966 87.9326 66.3767 87.9326 66.8413C87.9326 67.3059 88.3084 67.686 88.773 67.686C89.2376 67.686 89.6177 67.3059 89.6177 66.8413C89.6177 66.3767 89.2376 65.9966 88.773 65.9966Z" fill="#FDFBF6"/>
</g>
<defs>
<clipPath id="clip0_2917_2882">
<rect width="132" height="132" fill="white"/>
</clipPath>
</defs>
</svg>
