<svg width="53" height="46" viewBox="0 0 53 46" fill="none" xmlns="http://www.w3.org/2000/svg">
<g clip-path="url(#clip0_2307_32581)">
<mask id="mask0_2307_32581" style="mask-type:luminance" maskUnits="userSpaceOnUse" x="0" y="0" width="53" height="46">
<path d="M52.5 0.875H0V45.125H52.5V0.875Z" fill="white"/>
</mask>
<g mask="url(#mask0_2307_32581)">
<path d="M16.2969 44.7469L18.8211 40.0189L27.8361 22.069L47.3887 14.0557L52.0364 27.6383L34.2468 44.7469H16.2969Z" fill="#235E74" stroke="#FDFBF6" stroke-width="0.46875"/>
<path d="M0.3125 33.9313L6.24238 25.918L18.8234 39.9814L16.2991 44.7493H10.81L0.3125 33.9313Z" fill="#235E74" stroke="#FDFBF6" stroke-width="0.46875"/>
<path d="M21.3073 17.1816L10.7697 19.5055L6.24219 25.836L18.8632 39.9396L27.7981 22.1098L21.3073 17.1816Z" fill="#235E74" stroke="#FDFBF6" stroke-width="0.46875"/>
<path d="M27.7994 22.029L21.3086 17.1009L42.7844 5.40137L47.352 14.0157L27.7994 22.029Z" fill="#235E74" stroke="#FDFBF6" stroke-width="0.46875"/>
<path d="M42.7062 5.40238L21.3106 17.182L10.813 19.5059L8.60938 7.88652L15.6611 2.75797L36.8965 1.11523L42.7062 5.40238Z" fill="#235E74" stroke="#FDFBF6" stroke-width="0.46875"/>
<mask id="mask1_2307_32581" style="mask-type:alpha" maskUnits="userSpaceOnUse" x="-3" y="12" width="82" height="35">
<path fill-rule="evenodd" clip-rule="evenodd" d="M37.1312 46.0743L69.2073 15.3085L69.1518 15.2507L37.0757 46.0164L37.1312 46.0743ZM75.9219 15.7867L43.8455 46.5525L43.7899 46.4946L75.8664 15.7288L75.9219 15.7867ZM1.6419 43.547L33.718 12.7812L33.6626 12.7233L1.58643 43.4891L1.6419 43.547ZM-2.19453 43.2738L29.8816 12.508L29.8262 12.4502L-2.25 43.216L-2.19453 43.2738ZM37.5549 13.0544L5.47865 43.8202L5.42318 43.7624L37.4994 12.9966L37.5549 13.0544ZM9.31533 44.0935L41.3916 13.3276L41.3361 13.2699L9.25991 44.0356L9.31533 44.0935ZM45.228 13.6008L13.1518 44.3667L13.0964 44.3088L45.1725 13.543L45.228 13.6008ZM16.9889 44.6399L49.065 13.8741L49.0096 13.8163L16.9334 44.5821L16.9889 44.6399ZM52.9017 14.1474L20.8256 44.9132L20.7702 44.8553L52.8463 14.0895L52.9017 14.1474ZM24.6621 45.1863L56.7382 14.4206L56.6827 14.3628L24.6066 45.1285L24.6621 45.1863ZM60.575 14.6938L28.4988 45.4596L28.4433 45.4018L60.5195 14.636L60.575 14.6938ZM32.3355 45.7329L64.4117 14.9671L64.3563 14.9092L32.28 45.675L32.3355 45.7329ZM68.2485 15.2403L36.1723 46.006L36.1168 45.9483L68.193 15.1824L68.2485 15.2403ZM40.009 46.2794L72.0852 15.5136L72.0297 15.4557L39.9536 46.2215L40.009 46.2794ZM-1.23535 43.3421L30.8409 12.5763L30.7854 12.5184L-1.29081 43.2843L-1.23535 43.3421ZM34.6773 12.8495L2.60109 43.6152L2.54562 43.5575L34.6218 12.7917L34.6773 12.8495ZM6.43784 43.8886L38.514 13.1227L38.4585 13.0649L6.3824 43.8307L6.43784 43.8886ZM42.3507 13.396L10.2746 44.1618L10.2191 44.104L42.2953 13.3381L42.3507 13.396ZM14.1111 44.4349L46.1871 13.6692L46.1317 13.6113L14.0555 44.3772L14.1111 44.4349ZM50.0239 13.9425L17.9478 44.7083L17.8923 44.6504L49.9685 13.8846L50.0239 13.9425ZM21.7848 44.9815L53.861 14.2157L53.8055 14.1579L21.7293 44.9237L21.7848 44.9815ZM57.6974 14.4888L25.6212 45.2547L25.5657 45.1968L57.6419 14.431L57.6974 14.4888ZM29.458 45.528L61.5342 14.7621L61.4787 14.7043L29.4025 45.4701L29.458 45.528ZM65.3709 15.0354L33.2947 45.8011L33.2392 45.7433L65.3154 14.9775L65.3709 15.0354ZM73.0444 15.5818L40.9682 46.3476L40.9128 46.2898L72.9889 15.5239L73.0444 15.5818ZM44.8049 46.6208L76.8811 15.855L76.8256 15.7972L44.7495 46.563L44.8049 46.6208ZM31.7997 12.6446L-0.276474 43.4104L-0.331942 43.3526L31.7442 12.5868L31.7997 12.6446ZM3.56059 43.6836L35.6367 12.9178L35.5813 12.86L3.50512 43.6258L3.56059 43.6836ZM39.4731 13.191L7.39704 43.9569L7.34151 43.899L39.4177 13.1332L39.4731 13.191ZM11.2338 44.2301L43.3099 13.4643L43.2545 13.4065L11.1783 44.1723L11.2338 44.2301ZM47.1467 13.7376L15.0705 44.5034L15.015 44.4455L47.0912 13.6797L47.1467 13.7376ZM18.9069 44.7765L50.9832 14.0108L50.9276 13.953L18.8515 44.7187L18.9069 44.7765ZM54.8199 14.2839L22.7436 45.0497L22.6882 44.9919L54.7644 14.2261L54.8199 14.2839ZM26.5807 45.323L58.6569 14.5572L58.6014 14.4993L26.5253 45.2652L26.5807 45.323ZM62.4933 14.8304L30.4172 45.5962L30.3618 45.5384L62.4378 14.7726L62.4933 14.8304ZM34.2539 45.8695L66.33 15.1036L66.2746 15.0458L34.1985 45.8116L34.2539 45.8695ZM70.1668 15.3769L38.0906 46.1427L38.0352 46.0849L70.1113 15.3191L70.1668 15.3769ZM41.9271 46.4159L74.0033 15.6501L73.9478 15.5923L41.8716 46.3581L41.9271 46.4159ZM77.8404 15.9234L45.7641 46.6892L45.7086 46.6313L77.7849 15.8655L77.8404 15.9234ZM0.682717 43.4787L32.7589 12.7128L32.7034 12.6551L0.627248 43.4208L0.682717 43.4787ZM36.5956 12.9861L4.51946 43.7519L4.46399 43.6941L36.5402 12.9282L36.5956 12.9861ZM8.35593 44.0251L40.432 13.2594L40.3766 13.2015L8.30036 43.9674L8.35593 44.0251ZM44.2692 13.5325L12.1929 44.2984L12.1375 44.2405L44.2136 13.4747L44.2692 13.5325ZM16.0297 44.5716L48.1059 13.8058L48.0504 13.7479L15.9742 44.5138L16.0297 44.5716ZM51.9423 14.079L19.8662 44.8448L19.8106 44.787L51.8868 14.0212L51.9423 14.079ZM23.7029 45.1181L55.779 14.3523L55.7236 14.2944L23.6474 45.0602L23.7029 45.1181ZM59.6157 14.6255L27.5396 45.3913L27.4842 45.3335L59.5603 14.5677L59.6157 14.6255ZM31.3764 45.6645L63.4525 14.8987L63.397 14.8409L31.3209 45.6067L31.3764 45.6645ZM67.2893 15.1719L35.2131 45.9378L35.1576 45.8799L67.2338 15.1141L67.2893 15.1719ZM39.0498 46.211L71.126 15.4452L71.0706 15.3874L38.9943 46.1532L39.0498 46.211ZM74.9625 15.7185L42.8863 46.4842L42.8308 46.4264L74.907 15.6606L74.9625 15.7185ZM46.723 46.7574L78.7989 15.9916L78.7434 15.9339L46.6675 46.6996L46.723 46.7574Z" fill="black"/>
</mask>
<g mask="url(#mask1_2307_32581)">
<path d="M16.4531 44.7498L18.9773 40.0219L27.9924 22.072L47.545 14.0586L52.1927 27.6412L34.403 44.7498H16.4531Z" fill="#FDFBF6"/>
</g>
</g>
</g>
<defs>
<clipPath id="clip0_2307_32581">
<rect width="52.5" height="44.25" fill="white" transform="translate(0 0.875)"/>
</clipPath>
</defs>
</svg>
