<svg width="57" height="26" viewBox="0 0 57 26" fill="none" xmlns="http://www.w3.org/2000/svg">
<g clip-path="url(#clip0_2307_32596)">
<mask id="mask0_2307_32596" style="mask-type:luminance" maskUnits="userSpaceOnUse" x="0" y="0" width="57" height="26">
<path d="M56.25 0.625H0V25.375H56.25V0.625Z" fill="white"/>
</mask>
<g mask="url(#mask0_2307_32596)">
<path d="M0.399214 18.4505L3.50968 24.788C3.5366 24.8429 3.59237 24.8778 3.65351 24.8778H51.4871C51.5297 24.8778 51.5705 24.8608 51.6009 24.8308L55.8521 20.579C55.8945 20.5369 55.9097 20.4748 55.8921 20.4179L52.5706 9.78227C52.5609 9.74987 52.5409 9.7216 52.5137 9.70142L41.0586 1.18986C41.0313 1.16926 40.9977 1.1582 40.9632 1.1582H17.8431C17.801 1.1582 17.7605 1.17479 17.7306 1.20436L0.430545 18.2657C0.381423 18.3142 0.368843 18.3886 0.399214 18.4505Z" fill="#235E74" stroke="#FDFBF6" stroke-width="0.46875"/>
<path d="M44.1376 11.6487L52.4105 9.76668C52.4923 9.74823 52.574 9.79541 52.5989 9.87506L55.8916 20.3802C55.9092 20.4366 55.8947 20.4982 55.8531 20.5404L51.6404 24.8312C51.61 24.8619 51.5692 24.8792 51.5259 24.8792H28.4809C28.3305 24.8792 28.2629 24.6907 28.379 24.5952L44.0711 11.6813C44.0903 11.6654 44.1135 11.6543 44.1376 11.6487Z" fill="#235E74" stroke="#FDFBF6" stroke-width="0.46875"/>
<path d="M18.6632 1.42618L44.0512 11.6357C44.0817 11.6481 44.1162 11.6507 44.1482 11.643L52.2177 9.73083C52.3499 9.6994 52.3852 9.52735 52.2762 9.4462L41.0959 1.14876C41.0687 1.12825 41.035 1.11719 41.0005 1.11719H18.723C18.5467 1.11719 18.4996 1.36039 18.6632 1.42618Z" fill="#235E74" stroke="#FDFBF6" stroke-width="0.46875"/>
<path d="M8.85786 9.92387L17.9446 1.19119C17.9901 1.14744 18.0571 1.13454 18.1156 1.1581L43.8921 11.5556C44.005 11.6012 44.0275 11.7511 43.933 11.8283L28.1203 24.7625C28.0918 24.7859 28.0559 24.7988 28.0189 24.7988H18.1081C18.0529 24.7988 18.0016 24.7703 17.9722 24.7235L8.83303 10.1245C8.79276 10.0602 8.80311 9.97645 8.85786 9.92387Z" fill="#235E74" stroke="#FDFBF6" stroke-width="0.46875"/>
<mask id="mask1_2307_32596" style="mask-type:alpha" maskUnits="userSpaceOnUse" x="-10" y="0" width="69" height="25">
<path fill-rule="evenodd" clip-rule="evenodd" d="M20.6025 0.499603L-9.20719 24.7801L-9.25781 24.718L20.5519 0.4375L20.6025 0.499603ZM24.4489 0.499603L-5.36074 24.7801L-5.41138 24.718L24.3983 0.4375L24.4489 0.499603ZM-1.51433 24.7801L28.2954 0.499603L28.2447 0.4375L-1.56498 24.718L-1.51433 24.7801ZM32.1416 0.499603L2.33208 24.7801L2.28143 24.718L32.0911 0.4375L32.1416 0.499603ZM6.17849 24.7801L35.988 0.499603L35.9376 0.4375L6.12784 24.718L6.17849 24.7801ZM39.8344 0.499603L10.0249 24.7801L9.97429 24.718L39.7839 0.4375L39.8344 0.499603ZM13.8713 24.7801L43.6809 0.499603L43.6303 0.4375L13.8207 24.718L13.8713 24.7801ZM47.5272 0.499603L17.7177 24.7801L17.6671 24.718L47.4768 0.4375L47.5272 0.499603ZM21.5641 24.7801L51.3737 0.499603L51.3231 0.4375L21.5135 24.718L21.5641 24.7801ZM55.2201 0.499603L25.4106 24.7801L25.3599 24.718L55.1696 0.4375L55.2201 0.499603ZM-8.24554 24.7801L21.5641 0.499603L21.5135 0.4375L-8.29616 24.718L-8.24554 24.7801ZM25.4106 0.499603L-4.39914 24.7801L-4.44979 24.718L25.3599 0.4375L25.4106 0.499603ZM-0.552729 24.7801L29.2569 0.499603L29.2063 0.4375L-0.603374 24.718L-0.552729 24.7801ZM33.1032 0.499603L3.29369 24.7801L3.24304 24.718L33.0527 0.4375L33.1032 0.499603ZM7.14009 24.7801L36.9496 0.499603L36.8991 0.4375L7.08945 24.718L7.14009 24.7801ZM40.796 0.499603L10.9865 24.7801L10.9359 24.718L40.7455 0.4375L40.796 0.499603ZM14.8329 24.7801L44.6424 0.499603L44.592 0.4375L14.7822 24.718L14.8329 24.7801ZM48.4888 0.499603L18.6793 24.7801L18.6287 24.718L48.4383 0.4375L48.4888 0.499603ZM22.5258 24.7801L52.3353 0.499603L52.2848 0.4375L22.4751 24.718L22.5258 24.7801ZM56.1816 0.499603L26.3721 24.7801L26.3215 24.718L56.1312 0.4375L56.1816 0.499603ZM-7.28395 24.7801L22.5258 0.499603L22.4751 0.4375L-7.33459 24.718L-7.28395 24.7801ZM26.3721 0.499603L-3.43753 24.7801L-3.48818 24.718L26.3215 0.4375L26.3721 0.499603ZM0.408874 24.7801L30.2186 0.499603L30.1679 0.4375L0.358228 24.718L0.408874 24.7801ZM34.0648 0.499603L4.25528 24.7801L4.20464 24.718L34.0143 0.4375L34.0648 0.499603ZM8.10169 24.7801L37.9112 0.499603L37.8607 0.4375L8.05106 24.718L8.10169 24.7801ZM41.7576 0.499603L11.9481 24.7801L11.8974 24.718L41.7072 0.4375L41.7576 0.499603ZM15.7945 24.7801L45.604 0.499603L45.5535 0.4375L15.7439 24.718L15.7945 24.7801ZM49.4505 0.499603L19.641 24.7801L19.5903 24.718L49.4 0.4375L49.4505 0.499603ZM23.4873 24.7801L53.2968 0.499603L53.2464 0.4375L23.4367 24.718L23.4873 24.7801ZM57.1433 0.499603L27.3337 24.7801L27.2831 24.718L57.0928 0.4375L57.1433 0.499603ZM14.1117 5.0673L18.8395 1.22089L18.789 1.1587L14.061 5.00511L14.1117 5.0673ZM23.4873 0.499603L-6.32234 24.7801L-6.37299 24.718L23.4367 0.4375L23.4873 0.499603ZM-2.47594 24.7801L27.3337 0.499603L27.2831 0.4375L-2.52658 24.718L-2.47594 24.7801ZM31.18 0.499603L1.37047 24.7801L1.31983 24.718L31.1295 0.4375L31.18 0.499603ZM5.21689 24.7801L35.0264 0.499603L34.9759 0.4375L5.16624 24.718L5.21689 24.7801ZM38.8728 0.499603L9.06326 24.7801L9.01264 24.718L38.8224 0.4375L38.8728 0.499603ZM12.9097 24.7801L42.7192 0.499603L42.6687 0.4375L12.8591 24.718L12.9097 24.7801ZM46.5657 0.499603L16.7561 24.7801L16.7055 24.718L46.5152 0.4375L46.5657 0.499603ZM20.6025 24.7801L50.412 0.499603L50.3616 0.4375L20.5519 24.718L20.6025 24.7801ZM54.2585 0.499603L24.4489 24.7801L24.3983 24.718L54.208 0.4375L54.2585 0.499603ZM28.2954 24.7801L58.1049 0.499603L58.0544 0.4375L28.2447 24.718L28.2954 24.7801Z" fill="black"/>
</mask>
<g mask="url(#mask1_2307_32596)">
<path d="M9.04297 9.9241L18.2984 1.0293L44.4223 11.5668L28.3552 24.7088H18.2984L9.04297 9.9241Z" fill="#FDFBF6"/>
</g>
</g>
</g>
<defs>
<clipPath id="clip0_2307_32596">
<rect width="56.25" height="24.75" fill="white" transform="translate(0 0.625)"/>
</clipPath>
</defs>
</svg>
