<svg width="90" height="65" viewBox="0 0 90 65" fill="none" xmlns="http://www.w3.org/2000/svg">
<g clip-path="url(#clip0_3046_12685)">
<path d="M17.1456 9.78369L56.0842 0.0322266L88.7011 27.0001L89.6763 47.0746L72.09 64.9635H33.6558H14.7582L5.44383 49.3276L0.433594 31.7413L11.0929 18.4928L17.1456 9.78369Z" fill="#235E74" stroke="#FDFBF6" stroke-width="0.56579"/>
<path d="M56.0823 0.0322266L51.7109 16.7442L64.556 33.9606L89.5063 47.0746" stroke="#FDFBF6" stroke-width="0.56579"/>
<path d="M49.1914 65.0979L64.5584 34.4648" stroke="#FDFBF6" stroke-width="0.56579"/>
<path d="M5.64453 49.5293L14.1855 37.0205L32.7805 64.9635" stroke="#FDFBF6" stroke-width="0.56579"/>
<path d="M51.7136 16.7441L14.4563 37.0205L11.0938 18.4927" stroke="#FDFBF6" stroke-width="0.56579"/>
<mask id="mask0_3046_12685" style="mask-type:alpha" maskUnits="userSpaceOnUse" x="-17" y="15" width="119" height="51">
<path fill-rule="evenodd" clip-rule="evenodd" d="M56.1191 15.5659L3.50065 65.0872L3.40371 64.9842L56.0221 15.4629L56.1191 15.5659ZM35.7505 15.5659L-16.8679 65.0872L-16.9648 64.9842L35.6536 15.4629L35.7505 15.5659ZM42.5402 15.5659L-10.0782 65.0872L-10.1752 64.9842L42.4433 15.4629L42.5402 15.5659ZM-3.28855 65.0872L49.3299 15.5659L49.2329 15.4629L-3.38549 64.9842L-3.28855 65.0872ZM10.2898 65.0872L62.9082 15.5659L62.8113 15.4629L10.1928 64.9842L10.2898 65.0872ZM69.6979 15.5659L17.0795 65.0872L16.9825 64.9842L69.601 15.4629L69.6979 15.5659ZM23.8691 65.0872L76.4876 15.5659L76.3906 15.4629L23.7722 64.9842L23.8691 65.0872ZM83.2767 15.5659L30.6583 65.0872L30.5614 64.9842L83.1798 15.4629L83.2767 15.5659ZM37.448 65.0872L90.0664 15.5659L89.9695 15.4629L37.351 64.9842L37.448 65.0872ZM96.8561 15.5659L44.2377 65.0872L44.1407 64.9842L96.7592 15.4629L96.8561 15.5659ZM-15.1702 65.0872L37.4482 15.5659L37.3513 15.4629L-15.2672 64.9842L-15.1702 65.0872ZM44.2374 15.5659L-8.38106 65.0872L-8.478 64.9842L44.1404 15.4629L44.2374 15.5659ZM-1.59138 65.0872L51.027 15.5659L50.9301 15.4629L-1.68832 64.9842L-1.59138 65.0872ZM57.8167 15.5659L5.1983 65.0872L5.10136 64.9842L57.7198 15.4629L57.8167 15.5659ZM11.9875 65.0872L64.6059 15.5659L64.5089 15.4629L11.8905 64.9842L11.9875 65.0872ZM71.3956 15.5659L18.7771 65.0872L18.6802 64.9842L71.2986 15.4629L71.3956 15.5659ZM25.5663 65.0872L78.1847 15.5659L78.0878 15.4629L25.4694 64.9842L25.5663 65.0872ZM84.9744 15.5659L32.356 65.0872L32.259 64.9842L84.8775 15.4629L84.9744 15.5659ZM39.1457 65.0872L91.7641 15.5659L91.6671 15.4629L39.0487 64.9842L39.1457 65.0872ZM98.5533 15.5659L45.9349 65.0872L45.8379 64.9842L98.4563 15.4629L98.5533 15.5659ZM-13.4731 65.0872L39.1454 15.5659L39.0484 15.4629L-13.57 64.9842L-13.4731 65.0872ZM45.935 15.5659L-6.68339 65.0872L-6.78033 64.9842L45.8381 15.4629L45.935 15.5659ZM0.105812 65.0872L52.7242 15.5659L52.6273 15.4629L0.00886917 64.9842L0.105812 65.0872ZM59.5139 15.5659L6.89549 65.0872L6.79855 64.9842L59.417 15.4629L59.5139 15.5659ZM13.6846 65.0872L66.3031 15.5659L66.2061 15.4629L13.5877 64.9842L13.6846 65.0872ZM73.0927 15.5659L20.4743 65.0872L20.3774 64.9842L72.9958 15.4629L73.0927 15.5659ZM27.264 65.0872L79.8824 15.5659L79.7855 15.4629L27.167 64.9842L27.264 65.0872ZM86.6716 15.5659L34.0531 65.0872L33.9562 64.9842L86.5746 15.4629L86.6716 15.5659ZM40.8428 65.0872L93.4613 15.5659L93.3643 15.4629L40.7459 64.9842L40.8428 65.0872ZM100.251 15.5659L47.6325 65.0872L47.5356 64.9842L100.154 15.4629L100.251 15.5659ZM24.2931 24.8818L32.6385 17.0368L32.5417 16.9338L24.1963 24.7787L24.2931 24.8818ZM40.8425 15.5659L-11.7759 65.0872L-11.8728 64.9842L40.7456 15.4629L40.8425 15.5659ZM-4.98622 65.0872L47.6322 15.5659L47.5353 15.4629L-5.08316 64.9842L-4.98622 65.0872ZM54.4219 15.5659L1.80346 65.0872L1.70652 64.9842L54.3249 15.4629L54.4219 15.5659ZM8.59262 65.0872L61.2111 15.5659L61.1141 15.4629L8.49568 64.9842L8.59262 65.0872ZM68.0007 15.5659L15.3823 65.0872L15.2854 64.9842L67.9038 15.4629L68.0007 15.5659ZM22.1715 65.0872L74.7899 15.5659L74.6929 15.4629L22.0745 64.9842L22.1715 65.0872ZM81.5796 15.5659L28.9611 65.0872L28.8642 64.9842L81.4826 15.4629L81.5796 15.5659ZM35.7508 65.0872L88.3692 15.5659L88.2723 15.4629L35.6539 64.9842L35.7508 65.0872ZM95.1584 15.5659L42.54 65.0872L42.4431 64.9842L95.0615 15.4629L95.1584 15.5659ZM49.3297 65.0872L101.948 15.5659L101.851 15.4629L49.2328 64.9842L49.3297 65.0872Z" fill="black"/>
</mask>
<g mask="url(#mask0_3046_12685)">
<path d="M14.3672 36.7388L51.7093 16.6533L64.2981 34.1928L49.3754 64.4625H32.4725L14.3672 36.7388Z" fill="#D9D9D9" stroke="black" stroke-width="0.141447"/>
</g>
</g>
<defs>
<clipPath id="clip0_3046_12685">
<rect width="89.9671" height="64.9671" fill="white" transform="translate(0 0.0332031)"/>
</clipPath>
</defs>
</svg>
