<svg width="880" height="405" viewBox="0 0 880 405" fill="none" xmlns="http://www.w3.org/2000/svg">
<g opacity="0.5">
<g clip-path="url(#clip0_1975_13813)">
<path d="M544.104 120.393L618.431 101.779L680.691 153.257L682.553 191.576L648.984 225.723H575.619H539.546L521.767 195.876L512.203 162.307L532.55 137.017L544.104 120.393Z" fill="#235E74" stroke="#FDFBF6" stroke-width="1.08"/>
<path d="M618.43 101.779L610.086 133.68L634.605 166.543L682.231 191.576" stroke="#FDFBF6" stroke-width="1.08"/>
<path d="M605.273 225.979L634.606 167.505" stroke="#FDFBF6" stroke-width="1.08"/>
<path d="M522.152 196.261L538.456 172.384L573.95 225.723" stroke="#FDFBF6" stroke-width="1.08"/>
<path d="M610.088 133.679L538.969 172.383L532.551 137.017" stroke="#FDFBF6" stroke-width="1.08"/>
</g>
<g clip-path="url(#clip1_1975_13813)">
<path d="M329.865 203.322L340.345 224.676C340.436 224.86 340.624 224.978 340.83 224.978H502C502.143 224.978 502.28 224.921 502.382 224.819L516.707 210.494C516.849 210.352 516.901 210.143 516.841 209.951L505.651 174.115C505.617 174.006 505.549 173.911 505.457 173.843L466.862 145.164C466.769 145.095 466.656 145.058 466.54 145.058H388.64C388.498 145.058 388.362 145.113 388.261 145.213L329.97 202.699C329.805 202.863 329.762 203.113 329.865 203.322Z" fill="#235E74" stroke="#FDFBF6" stroke-width="1.35"/>
<path d="M477.238 180.399L505.113 174.058C505.387 173.996 505.663 174.155 505.748 174.423L516.842 209.819C516.901 210.009 516.851 210.217 516.712 210.359L502.517 224.816C502.416 224.919 502.277 224.978 502.132 224.978H424.485C423.978 224.978 423.75 224.343 424.141 224.021L477.015 180.509C477.08 180.456 477.156 180.418 477.238 180.399Z" fill="#235E74" stroke="#FDFBF6" stroke-width="1.35"/>
<path d="M391.413 145.963L476.955 180.363C477.059 180.405 477.173 180.414 477.281 180.388L504.47 173.945C504.917 173.839 505.036 173.259 504.667 172.986L466.998 145.029C466.904 144.96 466.792 144.922 466.676 144.922H391.614C391.02 144.922 390.862 145.742 391.413 145.963Z" fill="#235E74" stroke="#FDFBF6" stroke-width="1.35"/>
<path d="M358.359 174.588L388.976 145.165C389.129 145.017 389.355 144.974 389.552 145.053L476.402 180.086C476.783 180.24 476.86 180.745 476.542 181.005L423.262 224.585C423.166 224.664 423.045 224.707 422.92 224.707H389.527C389.341 224.707 389.168 224.612 389.069 224.454L358.276 175.264C358.14 175.048 358.175 174.765 358.359 174.588Z" fill="#235E74" stroke="#FDFBF6" stroke-width="1.35"/>
</g>
<g clip-path="url(#clip2_1975_13813)">
<path d="M245.348 225.047L252.619 211.427L278.59 159.716L334.918 136.631L348.307 175.76L297.058 225.047H245.348Z" fill="#235E74" stroke="#FDFBF6" stroke-width="1.15425"/>
<path d="M199.295 193.882L216.378 170.797L252.621 211.311L245.35 225.047H229.536L199.295 193.882Z" fill="#235E74" stroke="#FDFBF6" stroke-width="1.15425"/>
<path d="M259.777 145.634L229.42 152.329L216.377 170.566L252.736 211.196L278.476 159.832L259.777 145.634Z" fill="#235E74" stroke="#FDFBF6" stroke-width="1.15425"/>
<path d="M278.476 159.601L259.777 145.404L321.645 111.7L334.804 136.516L278.476 159.601Z" fill="#235E74" stroke="#FDFBF6" stroke-width="1.15425"/>
<path d="M321.413 111.7L259.775 145.635L229.534 152.329L223.186 118.856L243.5 104.082L304.676 99.3491L321.413 111.7Z" fill="#235E74" stroke="#FDFBF6" stroke-width="1.15425"/>
</g>
</g>
<path d="M162.458 296V268H164.898L184.218 292.32H182.938V268H185.858V296H183.418L164.138 271.68H165.418V296H162.458ZM202.958 296.2C200.931 296.2 199.104 295.747 197.478 294.84C195.878 293.907 194.611 292.64 193.678 291.04C192.744 289.413 192.278 287.56 192.278 285.48C192.278 283.373 192.744 281.52 193.678 279.92C194.611 278.32 195.878 277.067 197.478 276.16C199.078 275.253 200.904 274.8 202.958 274.8C205.038 274.8 206.878 275.253 208.478 276.16C210.104 277.067 211.371 278.32 212.278 279.92C213.211 281.52 213.678 283.373 213.678 285.48C213.678 287.56 213.211 289.413 212.278 291.04C211.371 292.64 210.104 293.907 208.478 294.84C206.851 295.747 205.011 296.2 202.958 296.2ZM202.958 293.68C204.478 293.68 205.824 293.347 206.998 292.68C208.171 291.987 209.091 291.027 209.758 289.8C210.451 288.547 210.798 287.107 210.798 285.48C210.798 283.827 210.451 282.387 209.758 281.16C209.091 279.933 208.171 278.987 206.998 278.32C205.824 277.627 204.491 277.28 202.998 277.28C201.504 277.28 200.171 277.627 198.998 278.32C197.824 278.987 196.891 279.933 196.198 281.16C195.504 282.387 195.158 283.827 195.158 285.48C195.158 287.107 195.504 288.547 196.198 289.8C196.891 291.027 197.824 291.987 198.998 292.68C200.171 293.347 201.491 293.68 202.958 293.68ZM229.944 296V275H232.784V296H229.944ZM231.384 270.36C230.798 270.36 230.304 270.16 229.904 269.76C229.504 269.36 229.304 268.88 229.304 268.32C229.304 267.76 229.504 267.293 229.904 266.92C230.304 266.52 230.798 266.32 231.384 266.32C231.971 266.32 232.464 266.507 232.864 266.88C233.264 267.253 233.464 267.72 233.464 268.28C233.464 268.867 233.264 269.36 232.864 269.76C232.491 270.16 231.998 270.36 231.384 270.36ZM247.327 296.2C245.353 296.2 243.833 295.667 242.767 294.6C241.7 293.533 241.167 292.027 241.167 290.08V270.36H244.007V289.92C244.007 291.147 244.313 292.093 244.927 292.76C245.567 293.427 246.473 293.76 247.647 293.76C248.9 293.76 249.94 293.4 250.767 292.68L251.767 294.72C251.207 295.227 250.527 295.6 249.727 295.84C248.953 296.08 248.153 296.2 247.327 296.2ZM237.407 277.36V275H250.407V277.36H237.407ZM265.114 296.2C262.928 296.2 261.008 295.747 259.354 294.84C257.701 293.907 256.408 292.64 255.474 291.04C254.541 289.413 254.074 287.56 254.074 285.48C254.074 283.4 254.514 281.56 255.394 279.96C256.301 278.36 257.528 277.107 259.074 276.2C260.648 275.267 262.408 274.8 264.354 274.8C266.328 274.8 268.074 275.253 269.594 276.16C271.141 277.04 272.354 278.293 273.234 279.92C274.114 281.52 274.554 283.373 274.554 285.48C274.554 285.613 274.541 285.76 274.514 285.92C274.514 286.053 274.514 286.2 274.514 286.36H256.234V284.24H272.994L271.874 285.08C271.874 283.56 271.541 282.213 270.874 281.04C270.234 279.84 269.354 278.907 268.234 278.24C267.114 277.573 265.821 277.24 264.354 277.24C262.914 277.24 261.621 277.573 260.474 278.24C259.328 278.907 258.434 279.84 257.794 281.04C257.154 282.24 256.834 283.613 256.834 285.16V285.6C256.834 287.2 257.181 288.613 257.874 289.84C258.594 291.04 259.581 291.987 260.834 292.68C262.114 293.347 263.568 293.68 265.194 293.68C266.474 293.68 267.661 293.453 268.754 293C269.874 292.547 270.834 291.853 271.634 290.92L273.234 292.76C272.301 293.88 271.128 294.733 269.714 295.32C268.328 295.907 266.794 296.2 265.114 296.2ZM306.575 274.8C308.282 274.8 309.762 275.133 311.015 275.8C312.295 276.44 313.282 277.427 313.975 278.76C314.695 280.093 315.055 281.773 315.055 283.8V296H312.215V284.08C312.215 281.867 311.682 280.2 310.615 279.08C309.575 277.933 308.095 277.36 306.175 277.36C304.735 277.36 303.482 277.667 302.415 278.28C301.375 278.867 300.562 279.733 299.975 280.88C299.415 282 299.135 283.36 299.135 284.96V296H296.295V284.08C296.295 281.867 295.762 280.2 294.695 279.08C293.628 277.933 292.135 277.36 290.215 277.36C288.802 277.36 287.562 277.667 286.495 278.28C285.428 278.867 284.602 279.733 284.015 280.88C283.455 282 283.175 283.36 283.175 284.96V296H280.335V275H283.055V280.68L282.615 279.68C283.255 278.16 284.282 276.973 285.695 276.12C287.135 275.24 288.828 274.8 290.775 274.8C292.828 274.8 294.575 275.32 296.015 276.36C297.455 277.373 298.388 278.907 298.815 280.96L297.695 280.52C298.308 278.813 299.388 277.44 300.935 276.4C302.508 275.333 304.388 274.8 306.575 274.8ZM328.397 296.2C326.664 296.2 325.024 295.96 323.477 295.48C321.93 294.973 320.717 294.347 319.837 293.6L321.117 291.36C321.97 292 323.064 292.56 324.397 293.04C325.73 293.493 327.13 293.72 328.597 293.72C330.597 293.72 332.037 293.413 332.917 292.8C333.797 292.16 334.237 291.32 334.237 290.28C334.237 289.507 333.984 288.907 333.477 288.48C332.997 288.027 332.357 287.693 331.557 287.48C330.757 287.24 329.864 287.04 328.877 286.88C327.89 286.72 326.904 286.533 325.917 286.32C324.957 286.107 324.077 285.8 323.277 285.4C322.477 284.973 321.824 284.4 321.317 283.68C320.837 282.96 320.597 282 320.597 280.8C320.597 279.653 320.917 278.627 321.557 277.72C322.197 276.813 323.13 276.107 324.357 275.6C325.61 275.067 327.13 274.8 328.917 274.8C330.277 274.8 331.637 274.987 332.997 275.36C334.357 275.707 335.477 276.173 336.357 276.76L335.117 279.04C334.184 278.4 333.184 277.947 332.117 277.68C331.05 277.387 329.984 277.24 328.917 277.24C327.024 277.24 325.624 277.573 324.717 278.24C323.837 278.88 323.397 279.707 323.397 280.72C323.397 281.52 323.637 282.147 324.117 282.6C324.624 283.053 325.277 283.413 326.077 283.68C326.904 283.92 327.797 284.12 328.757 284.28C329.744 284.44 330.717 284.64 331.677 284.88C332.664 285.093 333.557 285.4 334.357 285.8C335.184 286.173 335.837 286.72 336.317 287.44C336.824 288.133 337.077 289.053 337.077 290.2C337.077 291.427 336.73 292.493 336.037 293.4C335.37 294.28 334.384 294.973 333.077 295.48C331.797 295.96 330.237 296.2 328.397 296.2ZM378.997 274.8C380.704 274.8 382.184 275.133 383.437 275.8C384.717 276.44 385.704 277.427 386.397 278.76C387.117 280.093 387.477 281.773 387.477 283.8V296H384.637V284.08C384.637 281.867 384.104 280.2 383.037 279.08C381.997 277.933 380.517 277.36 378.597 277.36C377.157 277.36 375.904 277.667 374.837 278.28C373.797 278.867 372.984 279.733 372.397 280.88C371.837 282 371.557 283.36 371.557 284.96V296H368.717V284.08C368.717 281.867 368.184 280.2 367.117 279.08C366.05 277.933 364.557 277.36 362.637 277.36C361.224 277.36 359.984 277.667 358.917 278.28C357.85 278.867 357.024 279.733 356.437 280.88C355.877 282 355.597 283.36 355.597 284.96V296H352.757V275H355.477V280.68L355.037 279.68C355.677 278.16 356.704 276.973 358.117 276.12C359.557 275.24 361.25 274.8 363.197 274.8C365.25 274.8 366.997 275.32 368.437 276.36C369.877 277.373 370.81 278.907 371.237 280.96L370.117 280.52C370.73 278.813 371.81 277.44 373.357 276.4C374.93 275.333 376.81 274.8 378.997 274.8ZM408.339 296V291.36L408.219 290.6V282.84C408.219 281.053 407.712 279.68 406.699 278.72C405.712 277.76 404.232 277.28 402.259 277.28C400.899 277.28 399.605 277.507 398.379 277.96C397.152 278.413 396.112 279.013 395.259 279.76L393.979 277.64C395.045 276.733 396.325 276.04 397.819 275.56C399.312 275.053 400.885 274.8 402.539 274.8C405.259 274.8 407.352 275.48 408.819 276.84C410.312 278.173 411.059 280.213 411.059 282.96V296H408.339ZM401.099 296.2C399.525 296.2 398.152 295.947 396.979 295.44C395.832 294.907 394.952 294.187 394.339 293.28C393.725 292.347 393.419 291.28 393.419 290.08C393.419 288.987 393.672 288 394.179 287.12C394.712 286.213 395.565 285.493 396.739 284.96C397.939 284.4 399.539 284.12 401.539 284.12H408.779V286.24H401.619C399.592 286.24 398.179 286.6 397.379 287.32C396.605 288.04 396.219 288.933 396.219 290C396.219 291.2 396.685 292.16 397.619 292.88C398.552 293.6 399.859 293.96 401.539 293.96C403.139 293.96 404.512 293.6 405.659 292.88C406.832 292.133 407.685 291.067 408.219 289.68L408.859 291.64C408.325 293.027 407.392 294.133 406.059 294.96C404.752 295.787 403.099 296.2 401.099 296.2ZM425.413 296.2C423.439 296.2 421.919 295.667 420.853 294.6C419.786 293.533 419.253 292.027 419.253 290.08V270.36H422.093V289.92C422.093 291.147 422.399 292.093 423.013 292.76C423.653 293.427 424.559 293.76 425.733 293.76C426.986 293.76 428.026 293.4 428.853 292.68L429.853 294.72C429.293 295.227 428.613 295.6 427.813 295.84C427.039 296.08 426.239 296.2 425.413 296.2ZM415.493 277.36V275H428.493V277.36H415.493ZM443 296.2C440.92 296.2 439.054 295.747 437.4 294.84C435.774 293.907 434.494 292.64 433.56 291.04C432.627 289.413 432.16 287.56 432.16 285.48C432.16 283.373 432.627 281.52 433.56 279.92C434.494 278.32 435.774 277.067 437.4 276.16C439.054 275.253 440.92 274.8 443 274.8C444.787 274.8 446.4 275.147 447.84 275.84C449.28 276.533 450.414 277.573 451.24 278.96L449.12 280.4C448.4 279.333 447.507 278.547 446.44 278.04C445.374 277.533 444.214 277.28 442.96 277.28C441.467 277.28 440.12 277.627 438.92 278.32C437.72 278.987 436.774 279.933 436.08 281.16C435.387 282.387 435.04 283.827 435.04 285.48C435.04 287.133 435.387 288.573 436.08 289.8C436.774 291.027 437.72 291.987 438.92 292.68C440.12 293.347 441.467 293.68 442.96 293.68C444.214 293.68 445.374 293.427 446.44 292.92C447.507 292.413 448.4 291.64 449.12 290.6L451.24 292.04C450.414 293.4 449.28 294.44 447.84 295.16C446.4 295.853 444.787 296.2 443 296.2ZM467.227 274.8C468.934 274.8 470.427 275.133 471.707 275.8C473.014 276.44 474.027 277.427 474.747 278.76C475.494 280.093 475.867 281.773 475.867 283.8V296H473.027V284.08C473.027 281.867 472.467 280.2 471.347 279.08C470.254 277.933 468.707 277.36 466.707 277.36C465.214 277.36 463.907 277.667 462.787 278.28C461.694 278.867 460.84 279.733 460.227 280.88C459.64 282 459.347 283.36 459.347 284.96V296H456.507V266.32H459.347V280.76L458.787 279.68C459.454 278.16 460.52 276.973 461.987 276.12C463.454 275.24 465.2 274.8 467.227 274.8ZM494.167 303.96C493.18 303.96 492.234 303.8 491.327 303.48C490.447 303.16 489.687 302.68 489.047 302.04L490.367 299.92C490.9 300.427 491.474 300.813 492.087 301.08C492.727 301.373 493.434 301.52 494.207 301.52C495.14 301.52 495.94 301.253 496.607 300.72C497.3 300.213 497.954 299.307 498.567 298L499.927 294.92L500.247 294.48L508.887 275H511.687L501.167 298.52C500.58 299.88 499.927 300.96 499.207 301.76C498.514 302.56 497.754 303.12 496.927 303.44C496.1 303.787 495.18 303.96 494.167 303.96ZM499.767 296.6L490.087 275H493.047L501.607 294.28L499.767 296.6ZM523.661 296.2C521.634 296.2 519.807 295.747 518.181 294.84C516.581 293.907 515.314 292.64 514.381 291.04C513.447 289.413 512.981 287.56 512.981 285.48C512.981 283.373 513.447 281.52 514.381 279.92C515.314 278.32 516.581 277.067 518.181 276.16C519.781 275.253 521.607 274.8 523.661 274.8C525.741 274.8 527.581 275.253 529.181 276.16C530.807 277.067 532.074 278.32 532.981 279.92C533.914 281.52 534.381 283.373 534.381 285.48C534.381 287.56 533.914 289.413 532.981 291.04C532.074 292.64 530.807 293.907 529.181 294.84C527.554 295.747 525.714 296.2 523.661 296.2ZM523.661 293.68C525.181 293.68 526.527 293.347 527.701 292.68C528.874 291.987 529.794 291.027 530.461 289.8C531.154 288.547 531.501 287.107 531.501 285.48C531.501 283.827 531.154 282.387 530.461 281.16C529.794 279.933 528.874 278.987 527.701 278.32C526.527 277.627 525.194 277.28 523.701 277.28C522.207 277.28 520.874 277.627 519.701 278.32C518.527 278.987 517.594 279.933 516.901 281.16C516.207 282.387 515.861 283.827 515.861 285.48C515.861 287.107 516.207 288.547 516.901 289.8C517.594 291.027 518.527 291.987 519.701 292.68C520.874 293.347 522.194 293.68 523.661 293.68ZM548.859 296.2C547.072 296.2 545.512 295.867 544.179 295.2C542.845 294.533 541.805 293.533 541.059 292.2C540.339 290.867 539.979 289.2 539.979 287.2V275H542.819V286.88C542.819 289.12 543.365 290.813 544.459 291.96C545.579 293.08 547.139 293.64 549.139 293.64C550.605 293.64 551.872 293.347 552.939 292.76C554.032 292.147 554.859 291.267 555.419 290.12C556.005 288.973 556.299 287.6 556.299 286V275H559.139V296H556.419V290.24L556.859 291.28C556.192 292.827 555.152 294.04 553.739 294.92C552.352 295.773 550.725 296.2 548.859 296.2ZM567.054 296V275H569.774V280.72L569.494 279.72C570.08 278.12 571.067 276.907 572.454 276.08C573.84 275.227 575.56 274.8 577.614 274.8V277.56C577.507 277.56 577.4 277.56 577.294 277.56C577.187 277.533 577.08 277.52 576.974 277.52C574.76 277.52 573.027 278.2 571.774 279.56C570.52 280.893 569.894 282.8 569.894 285.28V296H567.054ZM599.217 296.2C597.484 296.2 595.844 295.96 594.297 295.48C592.751 294.973 591.537 294.347 590.657 293.6L591.937 291.36C592.791 292 593.884 292.56 595.217 293.04C596.551 293.493 597.951 293.72 599.417 293.72C601.417 293.72 602.857 293.413 603.737 292.8C604.617 292.16 605.057 291.32 605.057 290.28C605.057 289.507 604.804 288.907 604.297 288.48C603.817 288.027 603.177 287.693 602.377 287.48C601.577 287.24 600.684 287.04 599.697 286.88C598.711 286.72 597.724 286.533 596.737 286.32C595.777 286.107 594.897 285.8 594.097 285.4C593.297 284.973 592.644 284.4 592.137 283.68C591.657 282.96 591.417 282 591.417 280.8C591.417 279.653 591.737 278.627 592.377 277.72C593.017 276.813 593.951 276.107 595.177 275.6C596.431 275.067 597.951 274.8 599.737 274.8C601.097 274.8 602.457 274.987 603.817 275.36C605.177 275.707 606.297 276.173 607.177 276.76L605.937 279.04C605.004 278.4 604.004 277.947 602.937 277.68C601.871 277.387 600.804 277.24 599.737 277.24C597.844 277.24 596.444 277.573 595.537 278.24C594.657 278.88 594.217 279.707 594.217 280.72C594.217 281.52 594.457 282.147 594.937 282.6C595.444 283.053 596.097 283.413 596.897 283.68C597.724 283.92 598.617 284.12 599.577 284.28C600.564 284.44 601.537 284.64 602.497 284.88C603.484 285.093 604.377 285.4 605.177 285.8C606.004 286.173 606.657 286.72 607.137 287.44C607.644 288.133 607.897 289.053 607.897 290.2C607.897 291.427 607.551 292.493 606.857 293.4C606.191 294.28 605.204 294.973 603.897 295.48C602.617 295.96 601.057 296.2 599.217 296.2ZM622.028 296.2C619.842 296.2 617.922 295.747 616.268 294.84C614.615 293.907 613.322 292.64 612.388 291.04C611.455 289.413 610.988 287.56 610.988 285.48C610.988 283.4 611.428 281.56 612.308 279.96C613.215 278.36 614.442 277.107 615.988 276.2C617.562 275.267 619.322 274.8 621.268 274.8C623.242 274.8 624.988 275.253 626.508 276.16C628.055 277.04 629.268 278.293 630.148 279.92C631.028 281.52 631.468 283.373 631.468 285.48C631.468 285.613 631.455 285.76 631.428 285.92C631.428 286.053 631.428 286.2 631.428 286.36H613.148V284.24H629.908L628.788 285.08C628.788 283.56 628.455 282.213 627.788 281.04C627.148 279.84 626.268 278.907 625.148 278.24C624.028 277.573 622.735 277.24 621.268 277.24C619.828 277.24 618.535 277.573 617.388 278.24C616.242 278.907 615.348 279.84 614.708 281.04C614.068 282.24 613.748 283.613 613.748 285.16V285.6C613.748 287.2 614.095 288.613 614.788 289.84C615.508 291.04 616.495 291.987 617.748 292.68C619.028 293.347 620.482 293.68 622.108 293.68C623.388 293.68 624.575 293.453 625.668 293C626.788 292.547 627.748 291.853 628.548 290.92L630.148 292.76C629.215 293.88 628.042 294.733 626.628 295.32C625.242 295.907 623.708 296.2 622.028 296.2ZM649.823 296V291.36L649.703 290.6V282.84C649.703 281.053 649.196 279.68 648.183 278.72C647.196 277.76 645.716 277.28 643.743 277.28C642.383 277.28 641.09 277.507 639.863 277.96C638.636 278.413 637.596 279.013 636.743 279.76L635.463 277.64C636.53 276.733 637.81 276.04 639.303 275.56C640.796 275.053 642.37 274.8 644.023 274.8C646.743 274.8 648.836 275.48 650.303 276.84C651.796 278.173 652.543 280.213 652.543 282.96V296H649.823ZM642.583 296.2C641.01 296.2 639.636 295.947 638.463 295.44C637.316 294.907 636.436 294.187 635.823 293.28C635.21 292.347 634.903 291.28 634.903 290.08C634.903 288.987 635.156 288 635.663 287.12C636.196 286.213 637.05 285.493 638.223 284.96C639.423 284.4 641.023 284.12 643.023 284.12H650.263V286.24H643.103C641.076 286.24 639.663 286.6 638.863 287.32C638.09 288.04 637.703 288.933 637.703 290C637.703 291.2 638.17 292.16 639.103 292.88C640.036 293.6 641.343 293.96 643.023 293.96C644.623 293.96 645.996 293.6 647.143 292.88C648.316 292.133 649.17 291.067 649.703 289.68L650.343 291.64C649.81 293.027 648.876 294.133 647.543 294.96C646.236 295.787 644.583 296.2 642.583 296.2ZM660.257 296V275H662.977V280.72L662.697 279.72C663.284 278.12 664.27 276.907 665.657 276.08C667.044 275.227 668.764 274.8 670.817 274.8V277.56C670.71 277.56 670.604 277.56 670.497 277.56C670.39 277.533 670.284 277.52 670.177 277.52C667.964 277.52 666.23 278.2 664.977 279.56C663.724 280.893 663.097 282.8 663.097 285.28V296H660.257ZM684.524 296.2C682.444 296.2 680.577 295.747 678.924 294.84C677.297 293.907 676.017 292.64 675.084 291.04C674.15 289.413 673.684 287.56 673.684 285.48C673.684 283.373 674.15 281.52 675.084 279.92C676.017 278.32 677.297 277.067 678.924 276.16C680.577 275.253 682.444 274.8 684.524 274.8C686.31 274.8 687.924 275.147 689.364 275.84C690.804 276.533 691.937 277.573 692.764 278.96L690.644 280.4C689.924 279.333 689.03 278.547 687.964 278.04C686.897 277.533 685.737 277.28 684.484 277.28C682.99 277.28 681.644 277.627 680.444 278.32C679.244 278.987 678.297 279.933 677.604 281.16C676.91 282.387 676.564 283.827 676.564 285.48C676.564 287.133 676.91 288.573 677.604 289.8C678.297 291.027 679.244 291.987 680.444 292.68C681.644 293.347 682.99 293.68 684.484 293.68C685.737 293.68 686.897 293.427 687.964 292.92C689.03 292.413 689.924 291.64 690.644 290.6L692.764 292.04C691.937 293.4 690.804 294.44 689.364 295.16C687.924 295.853 686.31 296.2 684.524 296.2ZM708.75 274.8C710.457 274.8 711.95 275.133 713.23 275.8C714.537 276.44 715.55 277.427 716.27 278.76C717.017 280.093 717.39 281.773 717.39 283.8V296H714.55V284.08C714.55 281.867 713.99 280.2 712.87 279.08C711.777 277.933 710.23 277.36 708.23 277.36C706.737 277.36 705.43 277.667 704.31 278.28C703.217 278.867 702.364 279.733 701.75 280.88C701.164 282 700.87 283.36 700.87 284.96V296H698.03V266.32H700.87V280.76L700.31 279.68C700.977 278.16 702.044 276.973 703.51 276.12C704.977 275.24 706.724 274.8 708.75 274.8Z" fill="#5C5D6D"/>
<defs>
<clipPath id="clip0_1975_13813">
<rect width="171.72" height="124.2" fill="white" transform="translate(511.387 101.777)"/>
</clipPath>
<clipPath id="clip1_1975_13813">
<rect width="188.19" height="81.54" fill="white" transform="translate(328.887 143.438)"/>
</clipPath>
<clipPath id="clip2_1975_13813">
<rect width="150.66" height="127.98" fill="white" transform="translate(198.387 98)"/>
</clipPath>
</defs>
</svg>
