<svg width="138" height="140" viewBox="0 0 138 140" fill="none" xmlns="http://www.w3.org/2000/svg">
<path d="M0 24.502C0 20.1259 1.73839 15.929 4.83274 12.8347C7.92709 9.74034 12.1239 8.00195 16.5 8.00195H115.5C119.876 8.00195 124.073 9.74034 127.167 12.8347C130.262 15.929 132 20.1259 132 24.502V98.752C132 103.128 130.262 107.325 127.167 110.419C124.073 113.514 119.876 115.252 115.5 115.252H82.5V123.502C82.5 125.69 83.3692 127.788 84.9164 129.336C86.4635 130.883 88.562 131.752 90.75 131.752H94.875C95.969 131.752 97.0182 132.187 97.7918 132.96C98.5654 133.734 99 134.783 99 135.877C99 136.971 98.5654 138.02 97.7918 138.794C97.0182 139.567 95.969 140.002 94.875 140.002H37.125C36.031 140.002 34.9818 139.567 34.2082 138.794C33.4346 138.02 33 136.971 33 135.877C33 134.783 33.4346 133.734 34.2082 132.96C34.9818 132.187 36.031 131.752 37.125 131.752H41.25C43.438 131.752 45.5365 130.883 47.0836 129.336C48.6308 127.788 49.5 125.69 49.5 123.502V115.252H16.5C12.1239 115.252 7.92709 113.514 4.83274 110.419C1.73839 107.325 0 103.128 0 98.752V24.502ZM8.25 94.2039V98.752C8.25 100.94 9.11919 103.038 10.6664 104.586C12.2135 106.133 14.312 107.002 16.5 107.002H115.5C117.688 107.002 119.786 106.133 121.334 104.586C122.881 103.038 123.75 100.94 123.75 98.752V94.2039H8.25ZM123.75 87.3289V24.502C123.75 22.3139 122.881 20.2155 121.334 18.6683C119.786 17.1211 117.688 16.252 115.5 16.252H16.5C14.312 16.252 12.2135 17.1211 10.6664 18.6683C9.11919 20.2155 8.25 22.3139 8.25 24.502V87.3289H123.75ZM76.461 131.752C75.0127 129.244 74.2501 126.398 74.25 123.502V115.252H57.75V123.502C57.75 126.505 56.9498 129.326 55.539 131.752H76.461Z" fill="#235E74"/>
<circle cx="116.875" cy="21.2207" r="20.625" fill="#235E74"/>
<path d="M112.692 27.2535C111.568 27.2535 110.659 28.1729 110.659 29.2967C110.659 30.4204 111.568 31.3398 112.692 31.3398C113.816 31.3398 114.735 30.4204 114.735 29.2967C114.735 28.1729 113.816 27.2535 112.692 27.2535ZM106.562 10.9082V12.9514H108.606L112.283 20.7052L110.904 23.2081C110.741 23.4941 110.649 23.8312 110.649 24.1888C110.649 25.3125 111.568 26.2319 112.692 26.2319H124.951V24.1888H113.121C112.978 24.1888 112.866 24.0764 112.866 23.9334L112.896 23.8108L113.816 22.1456H121.427C122.193 22.1456 122.867 21.7268 123.214 21.0934L126.872 14.4633C126.953 14.3203 126.994 14.1466 126.994 13.9729C126.994 13.4111 126.534 12.9514 125.973 12.9514H110.863L109.903 10.9082H106.562ZM122.908 27.2535C121.784 27.2535 120.875 28.1729 120.875 29.2967C120.875 30.4204 121.784 31.3398 122.908 31.3398C124.032 31.3398 124.951 30.4204 124.951 29.2967C124.951 28.1729 124.032 27.2535 122.908 27.2535Z" fill="white"/>
<mask id="path-4-inside-1_2917_2898" fill="white">
<rect x="15.8633" y="26.5098" width="15.4688" height="15.4688" rx="2.0625"/>
</mask>
<rect x="15.8633" y="26.5098" width="15.4688" height="15.4688" rx="2.0625" stroke="#235E74" stroke-width="4.95" mask="url(#path-4-inside-1_2917_2898)"/>
<path d="M39.582 30.9443H84.7508" stroke="#235E74" stroke-width="2.475" stroke-linecap="round"/>
<path d="M39.582 37.5439H84.7508" stroke="#235E74" stroke-width="2.475" stroke-linecap="round"/>
<mask id="path-7-inside-2_2917_2898" fill="white">
<rect x="15.8633" y="46.9277" width="15.4688" height="15.4688" rx="2.0625"/>
</mask>
<rect x="15.8633" y="46.9277" width="15.4688" height="15.4688" rx="2.0625" stroke="#235E74" stroke-width="4.95" mask="url(#path-7-inside-2_2917_2898)"/>
<path d="M39.582 51.3623H84.7508" stroke="#235E74" stroke-width="2.475" stroke-linecap="round"/>
<path d="M39.582 57.9619H84.7508" stroke="#235E74" stroke-width="2.475" stroke-linecap="round"/>
<mask id="path-10-inside-3_2917_2898" fill="white">
<rect x="15.8633" y="67.3496" width="15.4688" height="15.4688" rx="2.0625"/>
</mask>
<rect x="15.8633" y="67.3496" width="15.4688" height="15.4688" rx="2.0625" stroke="#235E74" stroke-width="4.95" mask="url(#path-10-inside-3_2917_2898)"/>
<path d="M39.582 71.7842H84.7508" stroke="#235E74" stroke-width="2.475" stroke-linecap="round"/>
<path d="M39.582 78.3838H84.7508" stroke="#235E74" stroke-width="2.475" stroke-linecap="round"/>
</svg>
